<?xml version="1.0" encoding="UTF-8" standalone="no"?>
<!-- Created with Inkscape (http://www.inkscape.org/) -->

<svg
   sodipodi:docname="buildaplotter.svg"
   id="svg5"
   version="1.1"
   viewBox="0 0 210 297"
   height="297mm"
   width="210mm"
   inkscape:version="1.1 (c68e22c387, 2021-05-23)"
   xmlns:inkscape="http://www.inkscape.org/namespaces/inkscape"
   xmlns:sodipodi="http://sodipodi.sourceforge.net/DTD/sodipodi-0.dtd"
   xmlns="http://www.w3.org/2000/svg"
   xmlns:svg="http://www.w3.org/2000/svg">
  <sodipodi:namedview
     id="namedview7"
     pagecolor="#ffffff"
     bordercolor="#666666"
     borderopacity="1.0"
     inkscape:pageshadow="2"
     inkscape:pageopacity="0.0"
     inkscape:pagecheckerboard="0"
     inkscape:document-units="mm"
     showgrid="false"
     inkscape:zoom="0.70910507"
     inkscape:cx="540.82253"
     inkscape:cy="451.27304"
     inkscape:window-width="1920"
     inkscape:window-height="1112"
     inkscape:window-x="-8"
     inkscape:window-y="-8"
     inkscape:window-maximized="1"
     inkscape:current-layer="layer1" />
  <defs
     id="defs2" />
  <g
     inkscape:label="Layer 1"
     inkscape:groupmode="layer"
     id="layer1">
    <g
       aria-label="BUILD A PLOTTER"
       id="text11843"
       style="font-weight:bold;font-size:35.2778px;line-height:1.25;font-family:'Berlin Sans FB Demi';-inkscape-font-specification:'Berlin Sans FB Demi, Bold';fill:none;stroke:#000000;stroke-width:0.1;stroke-miterlimit:4;stroke-dasharray:none;stroke-opacity:1"
       transform="matrix(0.83215257,0,0,0.80109467,-95.668367,8.6069406)">
      <g
         id="g18049"
         style="stroke-width:0.1;stroke-miterlimit:4;stroke-dasharray:none">
        <path
           d="m 70.12051,27.038544 q 0,3.169487 -1.98093,5.25377 -2.256538,2.394342 -7.92372,2.394342 -0.430637,0 -1.240234,-0.01723 -0.826823,0 -1.223009,0 -6.356202,0 -7.561985,-0.258382 -0.499539,-0.103353 -0.499539,-0.53399 0,-1.843126 0.206706,-5.581055 0.223931,-3.737928 0.223931,-5.59828 0,-1.998155 -0.206706,-7.510308 -0.05168,-1.412489 -0.18948,-4.237468 l -0.01722,-0.241156 q -0.01723,-0.327285 0.533989,-0.396186 0.568441,-0.0689 3.996311,-0.0689 5.494928,0 6.425103,0.03445 4.237468,0.155029 6.252849,1.378038 2.669949,1.63642 2.669949,5.529378 0,1.016303 -0.620117,2.153185 -0.447863,0.809597 -1.171333,1.619195 -0.637342,0.706244 -0.637342,0.654568 0,0.120578 0.447862,0.378961 1.205783,0.689019 1.894803,2.187635 0.620117,1.343587 0.620117,2.85943 z m -7.406956,-9.697945 q 0,-1.481391 -1.481391,-1.963704 -0.826823,-0.258382 -2.721625,-0.258382 -1.860352,0 -1.860352,0.275607 0,0.327285 -0.0689,0.999078 -0.05168,0.654568 -0.05168,0.981852 0,1.722548 0.292833,1.929254 0.18948,0.155029 2.187636,0.155029 3.703477,0 3.703477,-2.118734 z m 0.516765,9.629043 q 0,-1.550293 -1.291911,-2.101509 -0.826823,-0.344509 -2.687175,-0.344509 -2.222086,0 -2.411567,0.172255 -0.18948,0.155029 -0.18948,2.101508 0,2.032606 0.223931,2.256537 0.223932,0.206706 2.480469,0.206706 1.860352,0 2.618273,-0.292833 1.25746,-0.499539 1.25746,-1.998155 z"
           style="font-size:35.2778px;fill:none;stroke:#000000;stroke-width:0.1;stroke-miterlimit:4;stroke-dasharray:none;stroke-opacity:1"
           id="path17719" />
        <path
           style="fill:none;stroke:#000000;stroke-width:0.1;stroke-miterlimit:4;stroke-dasharray:none"
           d="m 50.933122,10.408814 -0.525575,0.525575 c -0.700767,0.700767 -0.633528,2.130237 0.06724,1.42947 l 1.419569,-1.419569 c 0.748355,-0.748355 2.25131,-0.754601 1.502955,-0.0062 l -2.824426,2.824426 c -0.748355,0.748355 -0.692011,2.18872 0.05634,1.440366 l 4.263174,-4.263174 c 0.748355,-0.748355 2.242109,-0.7454 1.493754,0.003 l -5.705402,5.705402 c -0.748355,0.748355 -0.70123,2.197939 0.04712,1.449585 l 7.152032,-7.152032 c 0.748355,-0.748355 2.233708,-0.736999 1.485353,0.01136 L 50.77047,19.55172 c -0.748355,0.748355 -0.715414,2.212123 0.03294,1.463769 L 60.81147,11.00743 c 0.748355,-0.748355 2.122458,-0.625749 1.374103,0.122606 l -3.29672,3.29672 c -0.748355,0.748355 0.71358,0.78313 1.461934,0.03478 l 3.127786,-3.127786 c 0.748355,-0.748355 1.945519,-0.44881 1.197165,0.299544 l -3.015873,3.015873 c -0.748355,0.748355 0.269168,1.227541 1.017523,0.479186 l 3.08115,-3.08115 c 0.748355,-0.748355 1.683488,-0.186778 0.935133,0.561576 L 63.2908,16.011645 C 62.542445,16.76 62.334454,18.4647 63.082809,17.716346 l 4.392092,-4.392092 c 0.748355,-0.748355 1.367763,0.128946 0.619409,0.8773 l -9.651923,9.651923 c -0.748355,0.748355 0.769998,0.726711 1.518353,-0.02164 l 8.594152,-8.594152 c 0.748355,-0.748355 1.024926,0.471783 0.276572,1.220138 l -7.45369,7.45369 c -0.748355,0.748355 0.461748,1.034961 1.210103,0.286606 l 6.299242,-6.299242 c 0.748355,-0.748355 0.159851,1.336858 -0.588503,2.085213 l -4.857512,4.857512 c -0.748355,0.748355 -0.304884,1.801594 0.44347,1.053239 l 3.175683,-3.175683 c 0.748355,-0.748355 1.575486,-0.07878 0.827131,0.669578 L 57.302959,33.973161 c -0.748355,0.748355 -2.23484,0.738131 -1.486485,-0.01022 l 4.038935,-4.038935 c 0.748355,-0.748355 -0.772628,-0.724081 -1.520983,0.02427 l -3.993142,3.993142 c -0.748355,0.748355 -2.199863,0.703154 -1.451509,-0.0452 L 56.8981,29.887892 c 0.748355,-0.748355 -0.100774,-1.395936 -0.849128,-0.647581 l -4.570441,4.570441 c -0.748355,0.748355 -1.834772,0.338062 -1.086417,-0.410292 l 5.571783,-5.571783 c 0.748355,-0.748355 0.760387,-2.257096 0.01203,-1.508741 l -5.566477,5.566477 c -0.748355,0.748355 -0.692995,-0.803714 0.05536,-1.552069 L 61.352512,19.446643 c 0.748355,-0.748355 -1.430179,-0.06653 -2.178534,0.681825 l -8.63562,8.63562 c -0.748355,0.748355 -0.664307,-0.832403 0.08405,-1.580757 l 7.039045,-7.039045 C 58.409808,19.395931 57.032124,19.276905 56.28377,20.02526 l -5.576716,5.576716 c -0.748355,0.748355 -0.682038,-0.814671 0.06632,-1.563026 l 5.098072,-5.098072 c 0.748355,-0.748355 0.729957,-2.226666 -0.0184,-1.478312 L 50.249109,23.0665 m 7.986585,11.470634 10.292121,-10.292121 c 0.748355,-0.748355 1.23033,0.266379 0.481976,1.014733 l -8.726478,8.726478 c -0.748355,0.748355 0.764552,0.732157 1.512907,-0.0162 l 7.531964,-7.531964 c 0.748355,-0.748355 0.842341,0.654368 0.09399,1.402723 l -5.999214,5.999214 c -0.748355,0.748355 1.114381,0.382328 1.862736,-0.366027 l 3.93375,-3.93375 c 0.748355,-0.748355 -0.329029,1.825738 -1.077384,2.574093 l -0.885273,0.885273 m -16.487492,1.358126 -0.470095,-0.470095 c -0.626793,-0.626793 -0.592753,-2.089462 0.03404,-1.462669 l 1.472903,1.472903 c 0.748355,0.748355 2.290117,0.793408 1.541763,0.04505 L 50.48106,31.076063 c -0.748355,-0.748355 -0.67878,-2.175489 0.06958,-1.427134 l 4.315558,4.315558 c 0.748355,0.748355 2.254252,0.757543 1.505898,0.0092 L 50.62674,28.228325 c -0.748355,-0.748355 -0.6719,-2.168609 0.07645,-1.420255 l 7.167798,7.167798 c 0.748355,0.748355 2.258482,0.761773 1.510127,0.01342 L 50.766388,25.374555 C 50.018033,24.6262 50.058139,23.169597 50.806494,23.917952 L 60.851122,33.96258 c 0.748355,0.748355 2.130554,0.633845 1.3822,-0.11451 l -3.976183,-3.976183 c -0.748355,-0.748355 0.829625,-0.667084 1.577979,0.08127 l 3.679572,3.679572 c 0.748355,0.748355 1.926139,0.42943 1.177785,-0.318925 l -3.411808,-3.411808 c -0.748355,-0.748355 0.512394,-0.984315 1.260748,-0.235961 l 3.218006,3.218006 c 0.748355,0.748355 1.683083,0.186374 0.934729,-0.56198 l -3.261093,-3.261093 c -0.748355,-0.748355 -0.294526,-1.791236 0.453828,-1.042881 l 3.608006,3.608006 c 0.748355,0.748355 1.419697,-0.07701 0.671342,-0.825367 L 50.495386,13.129879 c -0.748355,-0.748355 -0.678683,0.818026 0.06967,1.566381 l 9.167404,9.167404 c 0.748355,0.748355 -0.77668,0.720029 -1.525034,-0.02832 l -7.580723,-7.580723 c -0.748355,-0.748355 -0.693018,0.803691 0.05534,1.552045 l 6.084733,6.084733 c 0.748355,0.748355 0.0097,1.506387 -0.738677,0.758033 l -5.296118,-5.296118 c -0.748355,-0.748355 -0.704734,0.791975 0.04362,1.54033 l 5.183206,5.183206 c 0.748355,0.748355 0.785501,2.28221 0.03715,1.533856 l -5.750805,-5.750805 m 6.153979,-4.322987 -5.976149,-5.976149 c -0.748355,-0.748355 0.16047,-1.336239 0.908825,-0.587884 l 4.580032,4.580032 c 0.748355,0.748355 1.216738,-0.279971 0.468383,-1.028326 L 52.80228,10.946645 c -0.748355,-0.748355 0.740396,-0.756313 1.488751,-0.008 l 3.487944,3.487944 c 0.748355,0.748355 2.287026,0.790317 1.538672,0.04196 L 55.788268,10.93917 c -0.748355,-0.748355 0.751321,-0.745388 1.499676,0.003 l 9.61614,9.61614 c 0.748355,0.748355 1.439279,-0.05743 0.690925,-0.805785 L 58.78762,10.945148 c -0.748355,-0.748355 0.758379,-0.73833 1.506734,0.01003 l 7.906592,7.906592 c 0.748355,0.748355 1.232468,-0.264241 0.484114,-1.012596 l -6.859943,-6.859943 c -0.748355,-0.748355 0.911455,-0.585254 1.659809,0.1631 l 5.410283,5.410283 c 0.748355,0.748355 0.593069,-0.90364 -0.155286,-1.651995 L 65.325624,11.49632 c -0.748355,-0.748355 1.80081,0.304101 2.549165,1.052456 l 0.565914,0.565914 m -9.993004,6.470798 10.267416,10.267416 c 0.748355,0.748355 1.157305,-0.339405 0.40895,-1.087759 l -8.647336,-8.647336 c -0.748355,-0.748355 0.517074,-0.979635 1.265429,-0.23128 l 7.649177,7.649177 c 0.748355,0.748355 0.773288,-0.723421 0.02493,-1.471776 l -6.682001,-6.682001 c -0.748355,-0.748355 -0.148861,-1.645571 0.599493,-0.897216 l 6.306295,6.306295"
           id="path18047" />
      </g>
      <g
         id="g18054"
         style="stroke-width:0.1;stroke-miterlimit:4;stroke-dasharray:none">
        <path
           d="m 92.875367,26.02224 q 0,4.392497 -1.050755,5.994467 -1.929253,2.928331 -9.629042,2.928331 -3.479546,0 -5.357123,-0.53399 -2.997233,-0.861274 -3.892958,-3.290066 -0.447863,-1.188558 -0.447863,-4.237468 0,-0.706244 0.05168,-2.101508 0.05168,-1.395264 0.05168,-2.084283 0,-1.998155 -0.18948,-5.994466 -0.18948,-3.996311 -0.18948,-5.977241 0,-0.413411 0.361735,-0.413411 1.050754,0 3.169488,0.08613 2.135959,0.08613 3.186713,0.08613 0.430637,0 0.430637,0.378961 0,2.273763 -0.155029,6.821289 -0.137804,4.530301 -0.137804,6.804064 0,2.7044 0.568441,3.651801 0.757921,1.291911 3.169487,1.291911 3.531223,0 3.531223,-3.42787 0,-2.497694 -0.120578,-7.493083 -0.120578,-4.995389 -0.120578,-7.493083 0,-0.53399 0.430637,-0.53399 1.016303,0 3.066135,-0.08613 2.049832,-0.08613 3.066135,-0.08613 0.499539,0 0.499539,0.413411 0,1.98093 -0.172255,5.977241 -0.155029,3.996311 -0.155029,5.994466 0,0.551215 0.01722,1.670871 0.01723,1.102431 0.01723,1.653646 z"
           style="font-size:35.2778px;fill:none;stroke:#000000;stroke-width:0.1;stroke-miterlimit:4;stroke-dasharray:none;stroke-opacity:1"
           id="path17721" />
        <path
           style="fill:none;stroke:#000000;stroke-width:0.1;stroke-miterlimit:4;stroke-dasharray:none"
           d="m 72.363526,11.593403 0.574624,-0.574624 c 0.748355,-0.748355 2.199472,-0.702763 1.451118,0.04559 l -1.43029,1.43029 c -0.748355,0.748355 -0.697125,2.193834 0.05123,1.445479 l 2.825468,-2.825468 c 0.748355,-0.748355 2.197751,-0.701042 1.449397,0.04731 l -4.213805,4.213805 c -0.748355,0.748355 -0.684909,2.181618 0.06345,1.433264 l 5.516161,-5.516161 c 0.748355,-0.748355 0.764302,0.732407 0.01595,1.480762 l -5.470427,5.470427 c -0.748355,0.748355 -0.69624,2.19295 0.05211,1.444595 l 5.389153,-5.389153 c 0.748355,-0.748355 0.707773,0.788937 -0.04058,1.537291 l -5.312926,5.312926 c -0.748355,0.748355 -0.745521,2.24223 0.0028,1.493875 l 5.262488,-5.262488 c 0.748355,-0.748355 0.701587,0.795122 -0.04677,1.543476 l -5.258589,5.258589 c -0.748355,0.748355 -0.792479,2.289188 -0.04412,1.540833 l 5.272177,-5.272177 c 0.748355,-0.748355 0.699843,0.796867 -0.04851,1.545221 l -5.220376,5.220376 c -0.748355,0.748355 -0.671542,2.168251 0.07681,1.419896 l 5.11688,-5.11688 c 0.748355,-0.748355 0.735721,0.760988 -0.01263,1.509343 l -4.914956,4.914956 c -0.748355,0.748355 -0.35636,1.853069 0.391995,1.104714 l 4.573036,-4.573036 c 0.748355,-0.748355 0.927176,0.569534 0.178821,1.317888 l -4.150225,4.150225 c -0.748355,0.748355 0.02245,1.474264 0.7708,0.72591 l 3.801447,-3.801447 c 0.748355,-0.748355 1.517942,-0.02123 0.769588,0.727121 l -3.640979,3.640979 c -0.748355,0.748355 0.324741,1.171968 1.073096,0.423613 l 3.66029,-3.66029 c 0.748355,-0.748355 2.119422,-0.622713 1.371068,0.125642 l -3.82364,3.82364 c -0.748355,0.748355 0.568754,0.927955 1.317109,0.1796 l 4.986692,-4.986692 m 2.064261,-18.528063 -0.286891,0.286891 c -0.382522,0.382522 -0.372576,1.869286 0.0099,1.486764 l 1.250592,-1.250592 c 0.748355,-0.748355 2.301052,-0.804343 1.552698,-0.05599 l -2.509394,2.509394 c -0.748355,0.748355 -0.721071,2.21778 0.02728,1.469425 l 4.034071,-4.034071 c 0.748355,-0.748355 2.216185,-0.719476 1.46783,0.02888 l -5.47104,5.47104 c -0.748355,0.748355 -0.715379,2.212088 0.03298,1.463733 l 5.542639,-5.542639 c 0.748355,-0.748355 0.709401,0.787308 -0.03895,1.535663 l -5.470709,5.470709 c -0.748355,0.748355 -0.717821,2.21453 0.03053,1.466175 l 5.387689,-5.387689 c 0.748355,-0.748355 0.685581,0.811129 -0.06277,1.559483 l -5.298004,5.298004 c -0.748355,0.748355 -0.728905,2.225614 0.01945,1.477259 l 5.221623,-5.221623 c 0.748355,-0.748355 0.699115,0.797594 -0.04924,1.545948 l -5.171728,5.171728 c -0.748355,0.748355 -1.192504,2.689213 -0.444149,1.940858 l 5.578497,-5.578497 c 0.748355,-0.748355 0.730184,0.766525 -0.01817,1.51488 L 81.167125,34.220695 c -0.748355,0.748355 0.718787,0.777922 1.467142,0.02957 l 9.52817,-9.52817 c 0.748355,-0.748355 0.763765,0.732944 0.01541,1.481299 l -8.018825,8.018825 c -0.748355,0.748355 0.854594,0.642115 1.602949,-0.10624 l 6.401725,-6.401725 c 0.748355,-0.748355 0.63492,0.861789 -0.113434,1.610143 L 87.497857,33.8768 c -0.748355,0.748355 1.287045,0.209664 2.0354,-0.53869 l 2.827579,-2.827579 M 75.42063,33.727926 73.747852,32.055148 C 72.999497,31.306793 72.548206,29.358793 73.29656,30.107147 l 3.797042,3.797042 c 0.748355,0.748355 2.481191,0.984482 1.732836,0.236127 l -5.617467,-5.617467 c -0.748355,-0.748355 -0.759804,-2.256513 -0.01145,-1.508158 l 7.216558,7.216558 c 0.748355,0.748355 2.261717,0.765008 1.513363,0.01665 l -8.691276,-8.691276 c -0.748355,-0.748355 -0.702602,-2.199312 0.04575,-1.450957 l 10.105953,10.105953 c 0.748355,0.748355 2.135888,0.639179 1.387534,-0.109175 L 73.287763,22.614805 c -0.748355,-0.748355 -0.780504,-2.277213 -0.03215,-1.528859 l 5.305366,5.305366 c 0.748355,0.748355 0.58738,-0.909329 -0.160974,-1.657684 l -5.197426,-5.197426 c -0.748355,-0.748355 -0.814368,-2.311077 -0.06601,-1.562723 l 5.252371,5.252371 c 0.748355,0.748355 0.767161,-0.729548 0.01881,-1.477902 l -5.3405,-5.3405 c -0.748355,-0.748355 -0.813317,-2.310026 -0.06496,-1.561672 l 5.435255,5.435255 c 0.748355,0.748355 0.784619,-0.71209 0.03626,-1.460445 l -5.523124,-5.523124 c -0.748355,-0.748355 -0.778311,-2.27502 -0.02996,-1.526665 l 5.594389,5.594389 c 0.748355,0.748355 0.793692,-0.703017 0.04534,-1.451372 l -4.902987,-4.902987 c -0.748355,-0.748355 0.790907,-0.705802 1.539262,0.04255 l 3.407017,3.407017 c 0.748355,0.748355 0.785553,-0.711156 0.0372,-1.45951 L 76.74742,11.107369 c -0.748355,-0.748355 0.771545,-0.725164 1.5199,0.02319 l 0.962206,0.962206 m 2.413813,17.380904 4.452372,4.452372 c 0.748355,0.748355 1.987811,0.491102 1.239456,-0.257253 l -3.554905,-3.554905 c -0.748355,-0.748355 0.512667,-0.984042 1.261021,-0.235688 l 3.434987,3.434987 c 0.748355,0.748355 1.774727,0.278018 1.026373,-0.470337 l -3.502968,-3.502968 c -0.748355,-0.748355 -0.09717,-1.593883 0.651181,-0.845528 l 3.739793,3.739793 c 0.748355,0.748355 1.462342,-0.03437 0.713988,-0.782721 l -4.115038,-4.115038 c -0.748355,-0.748355 -0.70112,-2.197829 0.04723,-1.449475 l 4.558111,4.558111 c 0.748355,0.748355 1.051733,-0.444976 0.303379,-1.19333 l -4.875712,-4.875712 c -0.748355,-0.748355 -0.771531,-2.26824 -0.02318,-1.519885 l 5.078904,5.078904 c 0.748355,0.748355 0.834907,-0.661803 0.08655,-1.410157 l -5.1941,-5.1941 c -0.748355,-0.748355 -0.782851,-2.27956 -0.0345,-1.531205 l 5.241136,5.241136 c 0.748355,0.748355 0.732628,-0.764081 -0.01573,-1.512436 L 86.901799,18.26833 c -0.748355,-0.748355 -0.782884,-2.279593 -0.03453,-1.531238 l 5.309676,5.309676 c 0.748355,0.748355 0.738431,-0.758279 -0.0099,-1.506633 l -5.328068,-5.328068 c -0.748355,-0.748355 -0.771125,-2.267835 -0.02277,-1.51948 l 5.386581,5.386581 c 0.748355,0.748355 0.794089,-0.70262 0.04573,-1.450975 l -5.445947,-5.445947 c -0.748355,-0.748355 -0.257303,-1.754012 0.491052,-1.005658 l 5.007193,5.007193 c 0.748355,0.748355 0.806088,-0.690621 0.05773,-1.438976 l -3.601692,-3.601692 c -0.748355,-0.748355 0.696263,-0.800446 1.444618,-0.05209 l 2.208465,2.208465 c 0.748355,0.748355 0.789011,-0.707698 0.04066,-1.456053 L 91.326844,10.7197 c -0.322714,-0.322714 1.142351,-0.354358 1.465065,-0.03164 l 0.242035,0.242035"
           id="path18052" />
      </g>
      <g
         id="g18059"
         style="stroke-width:0.1;stroke-miterlimit:4;stroke-dasharray:none">
        <path
           d="m 103.26233,21.750322 q 0,2.032606 0.10335,6.115044 0.10335,4.082439 0.10335,6.115045 0,0.34451 -0.15503,0.430637 -0.0344,0.01723 -0.44786,0.0689 -1.11965,0.137804 -2.997231,0.137804 -2.51492,0 -3.203939,-0.137804 -0.499539,-0.103353 -0.499539,-0.53399 0,0.275608 0.155029,-3.031684 0.310059,-6.976318 0.310059,-9.163954 0,-1.843126 -0.120578,-5.529379 -0.120579,-3.686252 -0.120579,-5.529378 0,-0.37896 0.396186,-0.37896 0.53399,0 1.60197,0.05168 1.085205,0.05168 1.619192,0.05168 0.53399,0 1.56752,-0.05168 1.05076,-0.05168 1.58475,-0.05168 0.49953,0 0.49953,0.37896 0,1.843126 -0.2067,5.529378 -0.18948,3.686253 -0.18948,5.529379 z"
           style="font-size:35.2778px;fill:none;stroke:#000000;stroke-width:0.1;stroke-miterlimit:4;stroke-dasharray:none;stroke-opacity:1"
           id="path17723" />
        <path
           style="fill:none;stroke:#000000;stroke-width:0.1;stroke-miterlimit:4;stroke-dasharray:none"
           d="m 96.522904,10.863134 0.20763,-0.20763 c 0.27684,-0.27684 1.724795,-0.228086 1.447955,0.04875 l -1.077053,1.077053 c -0.748355,0.748355 -0.71626,2.21297 0.03209,1.464615 l 2.139693,-2.139693 c 0.748361,-0.748355 2.284661,-0.787949 1.536311,-0.03959 l -3.635217,3.635209 c -0.748355,0.748355 -0.704014,2.200723 0.04434,1.452369 l 5.143447,-5.143441 c 0.74835,-0.748355 1.34297,0.153736 0.59462,0.902091 l -5.694892,5.694885 c -0.748355,0.748355 -0.712953,2.209662 0.0354,1.461307 l 5.619252,-5.619252 c 0.74835,-0.748355 0.68222,0.814484 -0.0661,1.562839 l -5.530968,5.530968 c -0.748355,0.748355 -0.755596,2.252305 -0.0072,1.50395 l 5.455888,-5.455896 c 0.74836,-0.748355 0.67209,0.82462 -0.0763,1.572974 l -5.416171,5.416174 c -0.748355,0.748355 -0.798002,2.294711 -0.04965,1.546357 l 5.401221,-5.401222 c 0.74835,-0.748355 0.7019,0.79481 -0.0465,1.543165 l -5.412923,5.412929 c -0.748355,0.748355 -0.812239,2.308948 -0.06388,1.560594 l 5.467483,-5.467477 c 0.74835,-0.748355 0.76326,0.733441 0.0149,1.481796 l -5.548889,5.548887 c -0.748355,0.748355 -0.820874,2.317584 -0.07252,1.569229 l 5.648569,-5.648572 c 0.74836,-0.748355 0.78017,0.716548 0.0318,1.464903 l -5.757357,5.757356 c -0.748355,0.748355 -0.132257,1.628967 0.616097,0.880612 l 5.17307,-5.173065 c 0.74835,-0.748355 0.78016,0.716548 0.0318,1.464903 l -3.784096,3.784097 c -0.748355,0.748355 0.729676,0.767033 1.478036,0.01868 l 2.33787,-2.337872 c 0.74835,-0.748355 0.77199,0.724722 0.0236,1.473077 l -1.20524,1.205242 c -0.25692,0.25692 1.32806,0.168647 1.58498,-0.08827 l 0.19269,-0.19269 m -6.505654,0.391944 -0.261541,-0.261541 c -0.348721,-0.348721 -0.276793,-1.773503 0.07193,-1.424781 l 1.217825,1.217825 c 0.748355,0.748355 2.26171,0.764997 1.513352,0.01664 l -2.366506,-2.366506 c -0.748355,-0.748355 -0.682954,-2.179663 0.0654,-1.431309 l 3.768964,3.768963 c 0.74836,0.748355 2.14473,0.64802 1.39638,-0.100335 l -5.104273,-5.104267 c -0.748355,-0.748355 -0.692417,-2.189126 0.05594,-1.440771 l 5.583593,5.583597 c 0.74836,0.748355 0.73199,-0.764727 -0.0164,-1.513081 l -5.535047,-5.535049 c -0.748355,-0.748355 -0.68327,-2.179979 0.06508,-1.431624 l 5.440317,5.440316 c 0.74836,0.748355 0.71514,-0.781573 -0.0332,-1.529927 l -5.376834,-5.376835 c -0.748355,-0.748355 -0.774968,-2.271677 -0.02661,-1.523322 l 5.370234,5.370229 c 0.74835,0.748355 0.71513,-0.781573 -0.0332,-1.529927 l -5.336039,-5.336036 c -0.748355,-0.748355 -0.78795,-2.28466 -0.0396,-1.536305 l 5.342409,5.342413 c 0.74835,0.748355 0.72932,-0.767384 -0.019,-1.515738 L 97.203723,16.78753 c -0.748355,-0.748355 -0.795488,-2.292197 -0.04713,-1.543842 l 5.418197,5.418196 c 0.74835,0.748355 0.78089,-0.715813 0.0325,-1.464168 l -5.490433,-5.490433 c -0.748355,-0.748355 -0.775562,-2.272271 -0.02721,-1.523916 l 5.571063,5.57106 c 0.74835,0.748355 0.81387,-0.682836 0.0655,-1.431191 l -5.320557,-5.320562 c -0.748355,-0.748355 0.80402,-0.692689 1.552375,0.05567 l 3.839842,3.839845 c 0.74836,0.748355 0.81883,-0.677885 0.0705,-1.42624 l -2.36361,-2.363615 c -0.748358,-0.748355 0.70553,-0.79118 1.45388,-0.04283 l 1.18824,1.188235 c 0.45316,0.453168 0.48713,-1.009579 0.034,-1.462748 L 102.841,10.451115"
           id="path18057" />
      </g>
      <g
         id="g18064"
         style="stroke-width:0.1;stroke-miterlimit:4;stroke-dasharray:none">
        <path
           d="m 122.60654,34.772783 q -1.48139,0 -3.8585,-0.0689 -3.10059,-0.0689 -3.85851,-0.08613 l -5.15042,-0.0689 q -0.77514,0.01723 -2.22208,-0.0689 -0.49954,-0.08613 -0.49954,-0.53399 0,-1.877577 0.0517,-5.615506 0.0689,-3.755154 0.0689,-5.632731 0,-1.998155 -0.12057,-5.977241 -0.12058,-3.996311 -0.12058,-5.994466 0,-0.378961 0.51676,-0.378961 0.51677,0 1.53307,0.05168 1.03353,0.05168 1.53307,0.05168 0.56844,0 1.68809,-0.05168 1.11966,-0.0689 1.6881,-0.0689 0.25838,0 0.24116,0.327284 l -0.0172,0.223931 q -0.2067,3.23839 -0.46509,9.732395 l -0.0172,4.547526 q 0,2.204862 0.0172,3.221165 0.0172,0.206706 0.0345,0.413411 0.0172,0.206706 0.25838,0.258382 0.0172,0 0.44786,0 1.55029,0 4.63365,-0.155029 3.10059,-0.172255 4.65088,-0.172255 0.46509,0 0.46509,0.396186 0,2.945557 -0.43064,5.081516 -0.0861,0.447863 -0.36173,0.53399 -0.0861,0.03445 -0.70625,0.03445 z"
           style="font-size:35.2778px;fill:none;stroke:#000000;stroke-width:0.1;stroke-miterlimit:4;stroke-dasharray:none;stroke-opacity:1"
           id="path17725" />
        <path
           style="fill:none;stroke:#000000;stroke-width:0.1;stroke-miterlimit:4;stroke-dasharray:none"
           d="m 107.03361,11.37806 0.44422,-0.444224 c 0.5923,-0.592298 2.0297,-0.532986 1.4374,0.05931 l -1.30064,1.300634 c -0.74835,0.748355 -0.71682,2.213529 0.0315,1.465174 l 2.62134,-2.621341 c 0.74836,-0.748355 2.30146,-0.804749 1.5531,-0.05639 l -4.13597,4.135972 c -0.74835,0.748355 -0.7073,2.204013 0.041,1.455658 l 5.63626,-5.636259 c 0.74836,-0.748355 0.7064,0.790308 -0.0419,1.538662 l -5.55367,5.553674 c -0.74836,0.748355 -0.71397,2.210679 0.0344,1.462325 l 5.43376,-5.433764 c 0.74836,-0.748355 0.66981,0.826906 -0.0786,1.575261 l -5.33142,5.331426 c -0.74836,0.748355 -0.74425,2.240952 0.004,1.492597 l 5.25625,-5.256255 c 0.74836,-0.748355 0.68035,0.816363 -0.068,1.564717 l -5.19931,5.199313 c -0.74835,0.748355 -0.76869,2.265396 -0.0203,1.517041 l 5.15502,-5.155025 c 0.74836,-0.748355 0.71455,0.782166 -0.0338,1.53052 l -5.14513,5.145129 c -0.74835,0.748355 -0.76892,2.265634 -0.0206,1.51728 l 5.16002,-5.160017 c 0.74835,-0.748355 0.74267,0.754037 -0.006,1.502392 l -5.17228,5.172279 c -0.74836,0.748355 -0.76245,2.259154 -0.0141,1.510799 l 5.18516,-5.185156 c 0.74835,-0.748355 0.75413,0.742573 0.006,1.490927 l -5.19924,5.199242 c -0.74836,0.748355 0.0869,1.409808 0.83525,0.661454 l 4.41139,-4.411388 c 0.74835,-0.748355 1.90112,-0.404412 1.15277,0.343942 l -4.14878,4.14878 c -0.74836,0.748355 0.77001,0.72669 1.51837,-0.02166 l 4.16765,-4.167653 c 0.74836,-0.748355 2.29823,-0.801518 1.54988,-0.05316 l -4.24058,4.240575 c -0.74835,0.748355 0.7286,0.768113 1.47695,0.01976 l 4.33574,-4.335743 c 0.74836,-0.748355 2.32252,-0.825807 1.57417,-0.07745 l -4.43697,4.43697 c -0.74836,0.748355 0.71567,0.781035 1.46402,0.03268 l 4.52669,-4.526688 c 0.74836,-0.748355 2.1937,-0.696986 1.44534,0.05137 l -4.508,4.508 c -0.74835,0.748355 0.71406,0.782653 1.46241,0.0343 l 3.09079,-3.090789 c 0.74836,-0.748355 0.67824,0.818473 -0.0701,1.566827 l -1.64012,1.640114 c -0.63483,0.634834 0.84674,0.649975 1.48157,0.01514 l 0.47613,-0.476125 m -15.97248,0.666189 -0.25704,-0.257032 c -0.34271,-0.34271 -0.33449,-1.831207 0.008,-1.488497 l 1.25289,1.252892 c 0.74835,0.748355 2.25088,0.754174 1.50253,0.0058 l -2.43835,-2.438344 c -0.74835,-0.748355 -0.73083,-2.227539 0.0175,-1.479185 l 3.93782,3.937823 c 0.74836,0.748355 2.26536,0.768648 1.517,0.02029 l -5.43569,-5.43569 c -0.74835,-0.748355 -0.72518,-2.22189 0.0232,-1.473535 l 6.9331,6.9331 c 0.74835,0.748355 2.27923,0.782527 1.53088,0.03417 l -8.44148,-8.441483 c -0.74836,-0.748355 -0.73745,-2.234159 0.0109,-1.485804 l 9.96146,9.96146 c 0.74836,0.748355 2.28118,0.784466 1.53282,0.03611 l -4.31531,-4.315314 c -0.74836,-0.748355 0.74461,-0.752102 1.49296,-0.0037 l 4.34868,4.348683 c 0.74836,0.748355 2.25178,0.755065 1.50342,0.0067 l -4.40718,-4.407182 c -0.74835,-0.748355 0.68262,-0.814093 1.43097,-0.06574 l 3.67322,3.673213 c 0.74835,0.748355 0.93883,-0.55787 0.19048,-1.306225 l -2.43991,-2.439908 c -0.74835,-0.748355 0.68516,-0.811555 1.43351,-0.0632 l 1.26627,1.266267 c 0.55954,0.559545 0.61013,-0.886574 0.0506,-1.446119 l -0.41966,-0.419659 m -15.86265,-6.882395 5.65394,5.653941 c 0.74835,0.748355 0.73641,-0.760296 -0.0119,-1.50865 l -5.10176,-5.101762 c -0.74836,-0.748355 -0.78221,-2.278914 -0.0339,-1.53056 l 5.13224,5.132232 c 0.74835,0.748355 0.75382,-0.742886 0.005,-1.491241 l -5.17944,-5.179442 c -0.74835,-0.748355 -0.7918,-2.288512 -0.0435,-1.540158 l 5.22853,5.22853 c 0.74836,0.748355 0.754,-0.742715 0.006,-1.49107 l -5.27486,-5.274864 c -0.74836,-0.748355 -0.78093,-2.277643 -0.0326,-1.529288 l 5.36312,5.363117 c 0.74835,0.748355 0.80784,-0.688871 0.0595,-1.437226 l -5.44194,-5.441941 c -0.74836,-0.748355 -0.0389,-1.535588 0.70948,-0.787233 l 4.79633,4.796332 c 0.74835,0.748355 0.81325,-0.683458 0.0649,-1.431812 l -3.30417,-3.304175 c -0.74836,-0.748355 0.77841,-0.718299 1.52676,0.03006 l 1.8494,1.849396 c 0.74836,0.748355 0.82478,-0.671926 0.0764,-1.420281 l -0.93272,-0.932716 c -0.1673,-0.167303 1.28658,-0.210131 1.45388,-0.04283 l 0.12548,0.125477"
           id="path18062" />
      </g>
      <g
         id="g18069"
         style="stroke-width:0.1;stroke-miterlimit:4;stroke-dasharray:none">
        <path
           d="m 148.54811,22.267086 q 0,5.064291 -3.25561,8.784994 -2.87666,3.324517 -8.07875,3.496772 -0.99908,0.03445 -5.49493,0.03445 -0.84405,0 -2.54937,-0.05168 -1.6881,-0.05168 -2.53215,-0.05168 -0.49953,0 -0.49953,-0.396186 0,-1.894803 0.1378,-5.684408 0.15503,-3.80683 0.15503,-5.701633 0,-1.98093 -0.15503,-5.925564 -0.1378,-3.96186 -0.1378,-5.925565 0,-0.361735 0.49953,-0.430637 1.22301,-0.137803 4.01354,-0.137803 5.30545,0 6.87297,0.155029 4.08243,0.413411 6.39065,2.067057 2.17041,1.550293 3.42787,4.340821 1.20578,2.635498 1.20578,5.426025 z m -6.59736,0 q 0,-2.911106 -1.73977,-4.754232 -1.757,-1.912028 -4.65088,-1.912028 -2.65272,0 -2.65272,0.706245 0,1.016303 -0.0344,3.066135 -0.0344,2.032606 -0.0344,3.048909 0,0.999078 0.0344,3.014459 0.0344,1.998156 0.0344,3.014459 0,0.740695 2.75607,0.740695 2.98001,0 4.68533,-1.98093 1.60197,-1.877577 1.60197,-4.943712 z"
           style="font-size:35.2778px;fill:none;stroke:#000000;stroke-width:0.1;stroke-miterlimit:4;stroke-dasharray:none;stroke-opacity:1"
           id="path17727" />
        <path
           style="fill:none;stroke:#000000;stroke-width:0.1;stroke-miterlimit:4;stroke-dasharray:none"
           d="m 127.40824,10.485178 -0.57091,0.570912 c -0.74836,0.748355 -0.72408,2.220783 0.0243,1.472428 l 1.53898,-1.538976 c 0.74835,-0.748355 2.26173,-0.765024 1.51337,-0.01667 l -3.01491,3.014918 c -0.74836,0.748355 -0.70327,2.199973 0.0451,1.451618 l 4.46243,-4.462429 c 0.74835,-0.748355 2.23491,-0.738201 1.48655,0.01015 l -5.89914,5.89914 c -0.74835,0.748355 -0.69713,2.19384 0.0512,1.445486 l 7.33268,-7.332688 c 0.74836,-0.748355 2.22261,-0.725893 1.47425,0.02246 l -8.76412,8.764123 c -0.74836,0.748355 -0.7199,2.216603 0.0285,1.468249 l 10.09804,-10.098045 c 0.74836,-0.748355 2.05636,-0.559647 1.308,0.188708 l -3.61129,3.611291 c -0.74835,0.748355 0.79011,0.706601 1.53847,-0.04175 l 3.30387,-3.303877 c 0.74836,-0.748355 1.89773,-0.40102 1.14938,0.347334 l -3.125,3.124996 c -0.74835,0.748355 0.38022,1.116492 1.12857,0.368138 l 3.05261,-3.052609 c 0.74836,-0.748355 1.71176,-0.215052 0.96341,0.533303 l -3.05484,3.054839 c -0.74835,0.748355 0.0662,1.430502 0.81456,0.682147 l 3.10581,-3.105812 c 0.74836,-0.748355 1.52369,-0.02697 0.77533,0.721382 l -3.18815,3.188152 c -0.74835,0.748355 -0.18267,1.679376 0.56569,0.931021 l 3.31493,-3.314931 c 0.74835,-0.748355 1.36189,0.134822 0.61353,0.883177 l -3.51704,3.517046 c -0.74836,0.748355 -0.50773,2.004439 0.24062,1.256084 l 3.81472,-3.814722 c 0.74836,-0.748355 1.21743,0.279282 0.46907,1.027637 l -4.24452,4.244528 c -0.74836,0.748355 -0.98083,2.477537 -0.23248,1.729182 l 4.87527,-4.875264 c 0.74835,-0.748355 1.05815,0.438556 0.3098,1.186911 l -13.64303,13.643028 c -0.74836,0.748355 -2.24863,0.751922 -1.50028,0.0036 l 4.13949,-4.139486 c 0.74835,-0.748355 -0.88109,-0.615621 -1.62945,0.132734 l -3.98749,3.987495 c -0.74836,0.748355 -2.20707,0.710357 -1.45871,-0.038 l 4.05197,-4.051973 c 0.74836,-0.748355 -0.3913,-1.105405 -1.13966,-0.35705 l -4.37364,4.373646 c -0.74836,0.748355 -1.97461,0.477894 -1.22625,-0.270461 l 5.39006,-5.390058 c 0.74835,-0.748355 0.72963,-2.226345 -0.0187,-1.47799 l -5.34007,5.340071 c -0.74836,0.748355 -0.71233,-0.784383 0.036,-1.532737 l 5.28239,-5.282389 c 0.74836,-0.748355 0.73085,-2.227554 -0.0175,-1.479199 l -5.21753,5.21753 c -0.74835,0.748355 -0.69377,-0.802932 0.0546,-1.551287 l 5.16326,-5.163263 c 0.74836,-0.748355 0.7665,-2.263206 0.0181,-1.514852 l -5.12393,5.123932 c -0.74836,0.748355 -0.70216,-0.794558 0.0462,-1.542912 l 5.09968,-5.09968 c 0.74835,-0.748355 0.76647,-2.263182 0.0181,-1.514828 l -5.65115,5.651149 m 8.32348,11.133735 12.91484,-12.914839 c 0.74835,-0.748355 0.80436,0.692346 0.056,1.440701 L 136.94965,33.87139 c -0.74836,0.748355 0.79563,0.701075 1.54399,-0.04728 l 9.25765,-9.257647 c 0.74835,-0.748355 0.39509,1.101613 -0.35326,1.849967 l -7.15044,7.150439 c -0.74836,0.748355 1.44885,0.04785 2.19721,-0.700501 l 4.71566,-4.715665 m -19.77166,6.206169 -0.55598,-0.555985 c -0.74131,-0.741313 -0.71524,-2.211953 0.0261,-1.47064 l 1.50129,1.501293 c 0.74836,0.748355 2.2851,0.788388 1.53674,0.04003 l -2.99203,-2.992029 c -0.74835,-0.748355 -0.70002,-2.196734 0.0483,-1.448379 l 4.45801,4.458005 c 0.74835,0.748355 2.24151,0.744804 1.49316,-0.0036 l -5.89818,-5.898173 c -0.74835,-0.748355 -0.69763,-2.194349 0.0507,-1.445994 l 7.34062,7.340616 c 0.74835,0.748355 2.23442,0.737718 1.48607,-0.01064 l -8.786,-8.786006 c -0.74836,-0.748355 -0.725,-2.221703 0.0234,-1.473348 l 10.20574,10.205745 c 0.74836,0.748355 2.07986,0.583153 1.33151,-0.165202 l -3.83035,-3.830349 c -0.74835,-0.748355 0.80809,-0.688616 1.55645,0.05974 l 3.49482,3.494823 c 0.74836,0.748355 1.86452,0.36781 1.11617,-0.380545 l -3.26837,-3.268363 c -0.74835,-0.748355 0.41758,-1.079133 1.16593,-0.330778 l 3.11928,3.119272 c 0.74835,0.748355 1.67095,0.174243 0.92259,-0.574111 l -3.06696,-3.066962 c -0.74835,-0.748355 0.0732,-1.42355 0.82152,-0.675196 l 3.07858,3.078582 c 0.74835,0.748355 1.49652,-1.83e-4 0.74817,-0.748538 l -3.1424,-3.142396 c -0.74835,-0.748355 -0.20118,-1.697889 0.54718,-0.949535 l 3.27421,3.274211 c 0.74835,0.748355 1.36878,-0.127929 0.62043,-0.876284 l -3.48949,-3.48949 c -0.74836,-0.748355 -0.50491,-2.001618 0.24344,-1.253264 l 3.80133,3.801333 c 0.74836,0.748355 1.23576,-0.260954 0.4874,-1.009309 l -4.21682,-4.216829 c -0.74836,-0.748355 -0.94382,-2.44052 -0.19546,-1.692165 l 4.81264,4.812641 c 0.74836,0.748355 1.05206,-0.444647 0.30371,-1.193002 L 133.95235,10.98619 c -0.74836,-0.748355 -2.25461,-0.757897 -1.50625,-0.0095 l 4.07859,4.078597 c 0.74836,0.748355 -0.86702,0.629689 -1.61537,-0.118666 l -3.96311,-3.963107 c -0.74835,-0.748355 -2.22767,-0.730965 -1.47932,0.01739 l 4.00233,4.002327 c 0.74835,0.748355 -0.35162,1.145093 -1.09997,0.396738 l -4.37086,-4.370856 c -0.74835,-0.748355 -1.91107,-0.41436 -1.16271,0.333995 l 5.37154,5.371541 c 0.74835,0.748355 0.72933,2.226037 -0.019,1.477682 l -5.34163,-5.341633 c -0.74836,-0.748355 -0.71516,0.78155 0.0332,1.529905 l 5.2871,5.287099 c 0.74836,0.748355 0.73129,2.227996 -0.0171,1.479641 l -5.22614,-5.226132 c -0.74835,-0.748355 -0.69745,0.799252 0.0509,1.547606 l 5.17592,5.17592 c 0.74836,0.748355 0.76696,2.263673 0.0186,1.515319 l -5.13755,-5.137555 c -0.74836,-0.748355 -0.70077,0.79594 0.0476,1.544294 l 5.11228,5.112279 c 0.74835,0.748355 0.76611,2.262819 0.0178,1.514465 l -5.65672,-5.656717 m 8.35798,-11.099227 12.85563,12.855629 c 0.74836,0.748355 0.83308,-0.663628 0.0847,-1.411983 l -10.83418,-10.83418 c -0.74836,-0.748355 0.88199,-0.614719 1.63034,0.133635 l 9.13187,9.131871 c 0.74836,0.748355 0.4577,-1.039009 -0.29065,-1.787364 l -7.02628,-7.026279 c -0.74835,-0.748355 1.35887,-0.137844 2.10722,0.61051 l 4.6491,4.649095"
           id="path18067" />
      </g>
      <g
         id="g18074"
         style="stroke-width:0.1;stroke-miterlimit:4;stroke-dasharray:none">
        <path
           d="m 182.75791,34.049313 q 0,0.310059 -0.43064,0.430637 -0.51676,0.137804 -3.20393,0.137804 -2.46325,0 -3.16949,-0.137804 -0.58567,-0.120578 -0.7407,-0.775147 -0.58566,-2.480468 -0.91295,-2.652723 -0.27561,-0.120578 -4.61643,-0.120578 -2.92833,0 -3.11781,0.155029 -0.29283,0.275607 -0.65457,1.843126 -0.32728,1.429715 -0.79237,1.550293 -0.58566,0.137804 -3.92741,0.137804 -2.63549,0 -2.63549,-0.499539 0,-0.447863 3.89295,-11.00708 4.22025,-11.420492 4.58198,-12.557374 0.20671,-0.6545679 0.48231,-0.6545679 0.46509,0 1.42972,0.086127 0.98185,0.086127 1.46416,0.086127 0.46509,0 1.36082,-0.05168 0.91295,-0.068902 1.36081,-0.068902 0.32728,0 0.60289,0.5684409 0.84405,1.808675 4.92649,12.402344 4.09966,10.662571 4.09966,11.127659 z m -12.21286,-15.69241 q -0.36174,0.757921 -1.22301,3.290066 -0.93018,2.687175 -0.93018,3.152262 0,0.310059 1.03353,0.34451 0.53399,0.03445 1.757,0.03445 1.13688,0 1.25746,-0.275608 0.0344,-0.08613 0.0344,-0.241156 0,-0.568441 -0.79237,-3.135037 -0.77515,-2.480469 -1.13688,-3.169488 z"
           style="font-size:35.2778px;fill:none;stroke:#000000;stroke-width:0.1;stroke-miterlimit:4;stroke-dasharray:none;stroke-opacity:1"
           id="path17729" />
        <path
           style="fill:none;stroke:#000000;stroke-width:0.1;stroke-miterlimit:4;stroke-dasharray:none"
           d="m 166.51332,12.417594 1.77563,-1.775631 c 0.74835,-0.748355 2.12555,-0.628841 1.37719,0.119513 l -3.4448,3.444807 c -0.74836,0.748355 -1.61477,3.111475 -0.86641,2.36312 l 5.85607,-5.856074 c 0.74836,-0.748355 2.26189,-0.76518 1.51353,-0.01683 l -8.24085,8.240858 c -0.74836,0.748355 -1.62291,3.119616 -0.87456,2.371261 l 9.66607,-9.666063 c 0.74835,-0.748355 1.19137,0.305341 0.44301,1.053695 l -10.9796,10.979597 c -0.74835,0.748355 -1.61409,3.110799 -0.86573,2.362445 l 12.27871,-12.27871 c 0.74835,-0.748355 1.17578,0.320926 0.42743,1.069281 l -3.21245,3.212449 c -0.74836,0.748355 -0.33711,1.833817 0.41125,1.085462 l 3.22495,-3.224952 c 0.74835,-0.748355 1.17055,0.326157 0.4222,1.074511 l -3.27253,3.272526 c -0.74836,0.748355 -0.39249,1.889199 0.35586,1.140845 l 3.33886,-3.338859 c 0.74836,-0.748355 1.16917,0.327543 0.42082,1.075897 l -3.42449,3.424489 c -0.74836,0.748355 -0.46097,1.957675 0.28738,1.209321 l 3.55495,-3.554946 c 0.74836,-0.748355 1.1662,0.330509 0.41785,1.078863 l -9.01563,9.015624 c -0.74835,0.748355 0.806,0.690712 1.55435,-0.05764 l 7.87912,-7.879118 c 0.74836,-0.748355 1.1662,0.330509 0.41785,1.078863 l -6.79926,6.799261 c -0.74836,0.748355 0.7369,0.759804 1.48526,0.01145 l 5.72812,-5.728126 c 0.74836,-0.748355 1.16215,0.334562 0.4138,1.082916 l -4.67749,4.677491 c -0.74836,0.748355 0.3372,1.159502 1.08556,0.411147 l 4.00572,-4.005722 c 0.74835,-0.748355 1.16215,0.334562 0.41379,1.082916 l -4.02963,4.029632 c -0.74835,0.748355 -0.44004,1.936749 0.30832,1.188394 l 4.13277,-4.13277 c 0.74835,-0.748355 1.15814,0.338568 0.40978,1.086922 l -3.84984,3.849838 c -0.74835,0.748355 0.64564,0.851075 1.39399,0.10272 l 2.86211,-2.862111 c 0.74836,-0.748355 1.1513,0.345417 0.40294,1.093771 l -1.79233,1.792328 c -0.74835,0.748355 0.75535,0.74136 1.50371,-0.007 l 0.93691,-0.93691 c 0.41196,-0.411964 0.78915,0.707561 0.37718,1.119525 l -0.30897,0.308973 m -21.48339,-5.457371 8.93913,-8.939136 c 0.74836,-0.748355 -0.0216,1.518285 -0.76993,2.26664 l -8.4466,8.446598 c -0.74835,0.748355 -1.52101,3.01772 -0.77265,2.269365 l 8.56016,-8.560167 c 0.74836,-0.748355 0.92624,0.570471 0.17789,1.318826 l -8.08789,8.087888 c -0.74836,0.748355 0.66718,0.829525 1.41554,0.08117 l 8.05784,-8.057837 c 0.74835,-0.748355 2.2629,-0.766192 1.51454,-0.01784 l -8.07219,8.072187 c -0.74835,0.748355 0.76472,0.731994 1.51307,-0.01636 l 1.39383,-1.393825 m -6.00793,1.932514 -0.49634,-0.496342 c -0.66179,-0.66179 -0.2864,-1.783113 0.37539,-1.121323 l 1.10107,1.101075 c 0.74836,0.748355 2.23302,0.736313 1.48467,-0.01204 l -2.13332,-2.133318 c -0.74835,-0.748355 -0.35255,-1.849258 0.39581,-1.100903 l 3.18956,3.189563 c 0.74836,0.748355 1.81421,0.317502 1.06586,-0.430853 l -3.85962,-3.859613 c -0.74835,-0.748355 -0.35255,-1.849258 0.39581,-1.100903 l 3.83602,3.836022 c 0.74836,0.748355 1.07118,-0.425528 0.32283,-1.173882 l -3.75802,-3.758017 c -0.74835,-0.748355 -0.34696,-1.843675 0.40139,-1.095321 l 4.0441,4.044099 c 0.74835,0.748355 2.17007,0.673361 1.42171,-0.07499 l -5.06442,-5.064426 c -0.74836,-0.748355 -0.34697,-1.843675 0.40139,-1.095321 l 6.14501,6.145016 c 0.74836,0.748355 2.25098,0.754264 1.50262,0.0059 l -7.24501,-7.245006 c -0.74835,-0.748355 -0.34508,-1.84179 0.40328,-1.093436 l 8.91926,8.919258 m 2.5455,2.545501 0.531,0.531002 c 0.708,0.708002 2.28677,0.790056 1.57876,0.08205 L 164.20627,20.812053 c -0.74835,-0.748355 -0.34508,-1.84179 0.40328,-1.093436 l 3.35882,3.358825 c 0.74836,0.748355 1.1113,-0.385413 0.36294,-1.133767 l -3.31853,-3.318534 c -0.74836,-0.748355 -0.34682,-1.84353 0.40153,-1.095176 l 3.29622,3.296217 c 0.74836,0.748355 1.13483,-0.36188 0.38647,-1.110235 l -3.28115,-3.281158 c -0.74836,-0.748355 -0.34682,-1.84353 0.40153,-1.095176 l 3.84388,3.843878 m 0.13395,6.120794 8.61812,8.618117 c 0.74836,0.748355 2.22388,0.727173 1.47553,-0.02118 l -8.04618,-8.046178 c -0.74835,-0.748355 0.18181,-1.3149 0.93016,-0.566545 l 8.51621,8.516203 c 0.74835,0.748355 0.75198,-0.744724 0.004,-1.493078 l -8.98596,-8.985956 c -0.74835,-0.748355 -1.3483,-2.845007 -0.59994,-2.096652 l 8.7339,8.733902 c 0.74836,0.748355 -0.14922,-1.645932 -0.89758,-2.394287 L 166.61689,14.242419 c -0.74835,-0.748355 -0.35037,-1.847078 0.39799,-1.098724 l 12.0065,12.006498 c 0.74835,0.748355 -0.17723,-1.673935 -0.92558,-2.42229 L 167.4109,12.043005 c -0.74836,-0.748355 -0.35994,-1.856652 0.38841,-1.108297 l 9.35309,9.353091 c 0.74836,0.748355 -0.19775,-1.694462 -0.94611,-2.442816 l -7.20436,-7.204359 c -0.74835,-0.748355 0.86354,-0.63317 1.6119,0.115184 l 4.62545,4.625455 c 0.74836,0.748355 -0.23329,-1.730002 -0.98164,-2.478357 l -2.26867,-2.268666 c -0.62637,-0.626373 0.79485,-0.701859 1.42122,-0.07549 l 0.46978,0.46978"
           id="path18072" />
      </g>
      <g
         id="g18079"
         style="stroke-width:0.1;stroke-miterlimit:4;stroke-dasharray:none">
        <path
           d="m 70.396117,63.625487 q 0,4.168566 -2.187635,6.752387 -2.342665,2.738851 -6.459554,2.738851 -0.68902,0 -2.084283,-0.0689 -1.378038,-0.08613 -2.067058,-0.08613 -0.740695,0 -0.740695,0.637343 0,0.792372 0.155029,2.35989 0.155029,1.567519 0.155029,2.342665 0,0.396186 -0.361735,0.396186 -1.050754,0 -3.152262,-0.0689 -2.101508,-0.05168 -3.152262,-0.05168 -0.499539,0 -0.499539,-0.499539 0,-1.912028 0.05168,-5.736084 0.0689,-3.841282 0.0689,-5.75331 0,-5.4088 -0.465088,-11.368815 l -0.01722,-0.241157 q -0.03445,-0.327284 0.516764,-0.396186 1.343587,-0.172255 5.925564,-0.172255 2.7044,0 5.184869,0.0689 4.082438,0.120579 6.580133,2.566597 2.54937,2.514919 2.54937,6.580132 z m -6.872965,0.275608 q 0,-4.013537 -3.910184,-4.013537 -2.756076,0 -2.89388,0.310059 -0.120578,0.223931 -0.120578,3.979085 0,0.53399 0.03445,1.584744 0.05168,1.033529 0.05168,1.567519 0,0.344509 3.100586,0.344509 3.737929,0 3.737929,-3.772379 z"
           style="font-size:35.2778px;fill:none;stroke:#000000;stroke-width:0.1;stroke-miterlimit:4;stroke-dasharray:none;stroke-opacity:1"
           id="path17731" />
        <path
           style="fill:none;stroke:#000000;stroke-width:0.1;stroke-miterlimit:4;stroke-dasharray:none"
           d="m 50.8226,54.654285 -0.50061,0.50061 c -0.667481,0.667481 -0.567943,2.064652 0.09954,1.397172 l 1.407113,-1.407113 c 0.748355,-0.748355 2.275447,-0.778738 1.527092,-0.03038 l -2.785484,2.785484 c -0.748355,0.748355 -0.67249,2.169199 0.07587,1.420844 l 4.214083,-4.214083 c 0.748355,-0.748355 2.245775,-0.749065 1.49742,-7.11e-4 l -5.648634,5.648634 c -0.748355,0.748355 -0.699345,2.196054 0.04901,1.4477 l 7.08501,-7.08501 c 0.748355,-0.748355 2.222556,-0.725847 1.474201,0.02251 l -8.525005,8.525005 c -0.748355,0.748355 -0.729981,2.226691 0.01837,1.478336 l 9.967338,-9.967338 c 0.748355,-0.748355 2.124347,-0.627638 1.375993,0.120717 l -3.996242,3.996242 c -0.748355,0.748355 0.844085,0.652624 1.592439,-0.09573 l 3.642471,-3.642471 c 0.748355,-0.748355 1.865129,-0.36842 1.116775,0.379935 l -3.33423,3.33423 c -0.748355,0.748355 0.403736,1.092974 1.15209,0.344619 l 3.187259,-3.187259 c 0.748355,-0.748355 1.644785,-0.148076 0.896431,0.600278 l -3.209984,3.209984 c -0.748355,0.748355 -0.146306,1.643015 0.602049,0.89466 l 3.409575,-3.409575 c 0.748355,-0.748355 1.450885,0.04582 0.702531,0.794179 l -3.792009,3.792009 c -0.748355,0.748355 -0.666345,2.163054 0.08201,1.4147 l 4.316413,-4.316413 c 0.748355,-0.748355 1.240049,0.25666 0.491695,1.005015 L 51.535933,77.888301 c -0.748355,0.748355 -1.588037,0.09133 -0.839682,-0.657027 l 8.896618,-8.896618 c 0.748355,-0.748355 -0.764691,-0.732018 -1.513046,0.01634 l -7.375438,7.375438 c -0.748355,0.748355 -0.734557,-0.762152 0.0138,-1.510506 l 5.964505,-5.964505 c 0.748355,-0.748355 0.04818,-1.544894 -0.70017,-0.796539 l -5.246794,5.246794 c -0.748355,0.748355 -0.728519,-0.768191 0.01984,-1.516545 l 5.175024,-5.175024 c 0.748355,-0.748355 0.723629,-2.220338 -0.02473,-1.471983 l -5.126913,5.126913 c -0.748355,0.748355 -0.727262,-0.769447 0.02109,-1.517802 l 5.113303,-5.113303 c 0.748355,-0.748355 0.786401,-2.28311 0.03805,-1.534755 l -5.70177,5.70177 m 7.82005,5.65033 11.315119,-11.315119 c 0.748355,-0.748355 0.986674,0.510035 0.238319,1.25839 l -9.551276,9.551276 c -0.748355,0.748355 0.685754,0.810955 1.434108,0.0626 l 8.197092,-8.197092 c 0.748355,-0.748355 0.681674,0.815035 -0.06668,1.563389 l -6.624886,6.624886 c -0.748355,0.748355 1.007414,0.489295 1.755769,-0.25906 l 4.530301,-4.530301 c 0.748355,-0.748355 -0.495962,1.992671 -1.244316,2.741025 l -1.077951,1.077951 m -14.525519,7.041974 3.730381,-3.730381 c 0.748355,-0.748355 0.850531,0.646178 0.102177,1.394533 l -1.807256,1.80725 c -0.748355,0.748355 0.707443,0.789266 1.455798,0.04091 l 0.940058,-0.940058 c 0.127452,-0.127452 0.197205,1.299504 0.06975,1.426957 l -0.09559,0.09559 M 50.817269,78.448015 50.4762,78.106946 c -0.454758,-0.454758 -0.446711,-1.94342 0.008,-1.488662 l 1.289221,1.289221 c 0.748355,0.748355 2.278791,0.782082 1.530437,0.03373 L 50.71799,75.355317 c -0.748355,-0.748355 -0.731216,-2.227925 0.01714,-1.47957 l 4.116125,4.116125 c 0.748355,0.748355 2.244467,0.747758 1.496112,-5.97e-4 L 50.754171,72.39808 c -0.748355,-0.748355 -0.725678,-2.222387 0.02268,-1.474032 l 5.642076,5.642076 c 0.748355,0.748355 0.603604,-0.893105 -0.144751,-1.64146 L 50.798749,69.44924 c -0.748355,-0.748355 -0.737664,-2.234373 0.01069,-1.486019 l 5.360086,5.360086 c 0.748355,0.748355 1.23774,-0.25897 0.489385,-1.007324 l -5.847254,-5.847254 c -0.748355,-0.748355 -0.765158,-2.261867 -0.0168,-1.513512 l 7.347369,7.347369 c 0.748355,0.748355 2.322624,0.825915 1.574269,0.07756 l -8.955913,-8.955913 c -0.748355,-0.748355 -0.799999,-2.296708 -0.05164,-1.548354 l 10.545845,10.545845 c 0.748355,0.748355 2.150485,0.653776 1.402131,-0.09458 l -3.998208,-3.998208 c -0.748355,-0.748355 0.785311,-0.711398 1.533666,0.03696 l 3.702576,3.702576 c 0.748355,0.748355 1.842911,0.346202 1.094557,-0.402153 l -3.41928,-3.41928 c -0.748355,-0.748355 0.338838,-1.157872 1.087192,-0.409517 l 3.299263,3.299263 c 0.748355,0.748355 1.594324,0.09762 0.845969,-0.65074 l -3.34475,-3.34475 C 62.709547,66.39294 63.226045,65.412729 63.9744,66.161084 l 3.570948,3.570948 c 0.748355,0.748355 1.384158,-0.112551 0.635804,-0.860906 l -3.978128,-3.978128 c -0.748355,-0.748355 -0.824639,-2.321348 -0.07628,-1.572993 l 4.590968,4.590968 c 0.748355,0.748355 1.176454,-0.320256 0.428099,-1.06861 L 57.409316,55.105877 c -0.748355,-0.748355 -2.24377,-0.747061 -1.495416,0.0013 l 4.189327,4.189327 c 0.748355,0.748355 -0.846792,0.649917 -1.595147,-0.09844 l -4.081409,-4.081409 c -0.748355,-0.748355 -2.223033,-0.726323 -1.474678,0.02203 l 4.121942,4.121942 c 0.748355,0.748355 -0.322381,1.174328 -1.070736,0.425974 L 51.522225,55.205624 C 50.77387,54.457269 49.57787,54.757978 50.326224,55.506332 l 5.602055,5.602055 c 0.748355,0.748355 0.729707,2.226416 -0.01865,1.478061 l -5.460053,-5.460053 c -0.748355,-0.748355 -0.643897,0.852812 0.104458,1.601167 l 5.356998,5.356998 c 0.748355,0.748355 0.794842,2.291551 0.04649,1.543197 L 50.034745,59.70498 m 8.321086,-5.149295 11.100862,11.100862 c 0.748355,0.748355 0.93633,-0.560379 0.187975,-1.308734 l -9.207926,-9.207926 c -0.748355,-0.748355 0.787883,-0.708826 1.536238,0.03953 l 7.72642,7.72642 c 0.748355,0.748355 0.612359,-0.88435 -0.135996,-1.632705 l -5.913579,-5.913579 c -0.748355,-0.748355 1.388,-0.10871 2.136354,0.639645 l 3.864391,3.864391"
           id="path18077" />
      </g>
      <g
         id="g18084"
         style="stroke-width:0.1;stroke-miterlimit:4;stroke-dasharray:none">
        <path
           d="m 88.586223,78.870035 q -1.481391,0 -3.858507,-0.0689 -3.100586,-0.0689 -3.858507,-0.08613 l -5.150418,-0.0689 q -0.775147,0.01723 -2.222087,-0.0689 -0.499539,-0.08613 -0.499539,-0.53399 0,-1.877577 0.05168,-5.615506 0.0689,-3.755154 0.0689,-5.632731 0,-1.998155 -0.120579,-5.977241 -0.120578,-3.996311 -0.120578,-5.994466 0,-0.378961 0.516764,-0.378961 0.516765,0 1.533068,0.05168 1.033528,0.05168 1.533067,0.05168 0.568441,0 1.688097,-0.05168 1.119656,-0.0689 1.688097,-0.0689 0.258382,0 0.241157,0.327284 l -0.01723,0.223931 q -0.206706,3.23839 -0.465088,9.732395 l -0.01722,4.547526 q 0,2.204861 0.01722,3.221165 0.01723,0.206705 0.03445,0.413411 0.01723,0.206706 0.258382,0.258382 0.01723,0 0.447863,0 1.550293,0 4.633653,-0.155029 3.100586,-0.172255 4.650879,-0.172255 0.465088,0 0.465088,0.396186 0,2.945557 -0.430637,5.081516 -0.08613,0.447863 -0.361735,0.53399 -0.08613,0.03445 -0.706244,0.03445 z"
           style="font-size:35.2778px;fill:none;stroke:#000000;stroke-width:0.1;stroke-miterlimit:4;stroke-dasharray:none;stroke-opacity:1"
           id="path17733" />
        <path
           style="fill:none;stroke:#000000;stroke-width:0.1;stroke-miterlimit:4;stroke-dasharray:none"
           d="m 73.013254,55.475305 0.44422,-0.44422 c 0.592294,-0.592294 2.029691,-0.532982 1.437397,0.05931 l -1.300632,1.300632 c -0.748355,0.748355 -0.71682,2.213529 0.03153,1.465175 l 2.621336,-2.621336 c 0.748355,-0.748355 2.301458,-0.804748 1.553103,-0.05639 l -4.135966,4.135966 c -0.748355,0.748355 -0.707303,2.204012 0.04105,1.455658 l 5.636259,-5.636259 c 0.748355,-0.748355 0.70637,0.790339 -0.04198,1.538694 l -5.553639,5.553639 c -0.748355,0.748355 -0.713968,2.210677 0.03439,1.462322 l 5.433726,-5.433726 c 0.748355,-0.748355 0.669803,0.826906 -0.07855,1.575261 l -5.331386,5.331386 c -0.748355,0.748355 -0.744242,2.240951 0.0041,1.492597 l 5.256215,-5.256215 c 0.748355,-0.748355 0.680348,0.816361 -0.06801,1.564716 l -5.199274,5.199274 c -0.748355,0.748355 -0.768687,2.265396 -0.02033,1.517041 l 5.154988,-5.154988 c 0.748355,-0.748355 0.714542,0.782167 -0.03381,1.530522 l -5.14509,5.14509 c -0.748355,0.748355 -0.768921,2.26563 -0.02057,1.517276 l 5.159968,-5.159968 c 0.748355,-0.748355 0.742665,0.754044 -0.0057,1.502398 l -5.172216,5.172216 c -0.748355,0.748355 -0.762439,2.259148 -0.01409,1.510794 l 5.185087,-5.185087 c 0.748355,-0.748355 0.754143,0.742566 0.0058,1.49092 l -5.199176,5.199176 c -0.748355,0.748355 0.08687,1.40984 0.835224,0.661485 l 4.411317,-4.411317 c 0.748355,-0.748355 1.901191,-0.404482 1.152837,0.343872 l -4.148754,4.148754 c -0.748355,0.748355 0.769994,0.726716 1.518348,-0.02164 l 4.167608,-4.167608 c 0.748355,-0.748355 2.298275,-0.801566 1.54992,-0.05321 l -4.240577,4.240577 c -0.748355,0.748355 0.728597,0.768113 1.476951,0.01976 l 4.335746,-4.335746 c 0.748355,-0.748355 2.322516,-0.825806 1.574161,-0.07745 l -4.436972,4.436972 c -0.748355,0.748355 0.715674,0.781035 1.464029,0.03268 l 4.526689,-4.526689 c 0.748355,-0.748355 2.193659,-0.69695 1.445304,0.05141 l -4.507965,4.507965 c -0.748355,0.748355 0.714056,0.782653 1.462411,0.0343 l 3.09072,-3.09072 c 0.748355,-0.748355 0.678284,0.818425 -0.07007,1.56678 L 87.6588,78.247486 c -0.634764,0.634764 0.846834,0.649876 1.481597,0.01511 L 89.61647,77.786525 M 73.644065,78.452638 73.38705,78.195623 c -0.342687,-0.342687 -0.334477,-1.831186 0.0082,-1.4885 l 1.252906,1.252906 c 0.748355,0.748355 2.250856,0.754147 1.502502,0.0058 L 73.712339,75.52751 c -0.748355,-0.748355 -0.730837,-2.227546 0.01752,-1.479191 l 3.937804,3.937804 c 0.748355,0.748355 2.265358,0.768648 1.517003,0.02029 L 73.74899,72.570737 c -0.748355,-0.748355 -0.72518,-2.22189 0.02317,-1.473535 l 6.933086,6.933086 c 0.748355,0.748355 2.279236,0.782527 1.530882,0.03417 L 73.79466,69.62299 c -0.748355,-0.748355 -0.73745,-2.234159 0.01091,-1.485804 l 9.961445,9.961445 c 0.748355,0.748355 2.281175,0.784466 1.532821,0.03611 l -4.31536,-4.31536 c -0.748355,-0.748355 0.744653,-0.752056 1.493007,-0.0037 l 4.348684,4.348684 c 0.748355,0.748355 2.251774,0.755065 1.503419,0.0067 l -4.407183,-4.407183 c -0.748355,-0.748355 0.682616,-0.814094 1.43097,-0.06574 l 3.673162,3.673162 c 0.748355,0.748355 0.938835,-0.557874 0.19048,-1.306229 l -2.439854,-2.439854 c -0.748355,-0.748355 0.685155,-0.811554 1.43351,-0.0632 l 1.266241,1.266241 c 0.559502,0.559502 0.610087,-0.886622 0.05059,-1.446123 l -0.419626,-0.419626 m -15.862636,-6.882382 5.653904,5.653904 c 0.748355,0.748355 0.7364,-0.760309 -0.01196,-1.508664 l -5.101713,-5.101713 c -0.748355,-0.748355 -0.782208,-2.278917 -0.03385,-1.530562 l 5.132181,5.132181 c 0.748355,0.748355 0.75383,-0.74288 0.0055,-1.491234 L 73.70988,62.054652 c -0.748355,-0.748355 -0.791804,-2.288513 -0.04345,-1.540159 l 5.228496,5.228496 c 0.748355,0.748355 0.754001,-0.742708 0.0056,-1.491063 l -5.274837,-5.274837 c -0.748355,-0.748355 -0.780933,-2.277642 -0.03258,-1.529288 l 5.363089,5.363089 c 0.748355,0.748355 0.807837,-0.688873 0.05948,-1.437227 l -5.441911,-5.441911 c -0.748355,-0.748355 -0.03889,-1.535595 0.709469,-0.78724 l 4.796308,4.796308 c 0.748355,0.748355 0.813251,-0.683458 0.0649,-1.431813 l -3.304151,-3.304151 c -0.748355,-0.748355 0.778411,-0.718298 1.526765,0.03006 l 1.849371,1.849371 c 0.748355,0.748355 0.824784,-0.671926 0.07643,-1.42028 L 78.36022,54.731319 c -0.167301,-0.167301 1.286571,-0.210138 1.453872,-0.04284 l 0.125476,0.125476"
           id="path18082" />
      </g>
      <g
         id="g18089"
         style="stroke-width:0.1;stroke-miterlimit:4;stroke-dasharray:none">
        <path
           d="m 115.97474,66.519367 q 0,5.374349 -3.42788,9.008925 -3.49677,3.686253 -8.85389,3.686253 -5.322673,0 -8.836671,-3.720704 -3.445095,-3.634576 -3.445095,-8.974474 0,-5.357123 3.445095,-9.008925 3.513998,-3.737928 8.836671,-3.737928 5.28822,0 8.81944,3.737928 3.46233,3.686253 3.46233,9.008925 z m -6.52846,-0.03445 q 0,-2.583821 -1.56752,-4.392496 -1.63642,-1.894803 -4.18579,-1.894803 -2.42879,0 -4.11689,1.963704 -1.63642,1.894803 -1.63642,4.358046 0,2.635498 1.533067,4.392497 1.619193,1.843126 4.220243,1.843126 2.42879,0 4.13411,-1.946479 1.6192,-1.860351 1.6192,-4.323595 z"
           style="font-size:35.2778px;fill:none;stroke:#000000;stroke-width:0.1;stroke-miterlimit:4;stroke-dasharray:none;stroke-opacity:1"
           id="path17735" />
        <path
           style="fill:none;stroke:#000000;stroke-width:0.1;stroke-miterlimit:4;stroke-dasharray:none"
           d="m 96.660932,56.002474 -2.860971,2.860971 m -1.474226,2.970935 6.728819,-6.728819 c 0.748355,-0.748355 2.723126,-1.226417 1.974776,-0.478063 l -8.698682,8.698678 c -0.748355,0.748355 -0.943296,2.440005 -0.194941,1.691651 L 102.67735,54.476182 c 0.74836,-0.748355 2.21572,-0.719011 1.46737,0.02934 L 92.112405,66.537838 c -0.748355,0.748355 -0.630871,2.12758 0.117484,1.379225 L 105.47696,54.669997 c 0.74835,-0.748355 1.96367,-0.466966 1.21532,0.281389 l -14.233195,14.23319 c -0.748355,0.748355 -0.418363,1.915072 0.329992,1.166718 l 4.579144,-4.579144 c 0.748355,-0.748355 0.631812,0.864897 -0.116542,1.613251 l -4.042087,4.042087 c -0.748355,0.748355 -0.246258,1.742967 0.502096,0.994613 l 3.696989,-3.696989 c 0.748355,-0.748355 1.109127,0.387582 0.360773,1.135936 l -3.47794,3.47794 c -0.748355,0.748355 -0.101121,1.59783 0.647233,0.849476 l 3.337796,-3.337796 c 0.748355,-0.748355 1.404597,0.09211 0.656242,0.840467 l -3.285429,3.285429 c -0.748355,0.748355 0.01791,1.478796 0.766268,0.730441 l 3.308355,-3.308355 c 0.748355,-0.748355 1.693395,-0.196682 0.945035,0.551673 l -3.4185,3.418501 c -0.748355,0.748355 0.157397,1.339312 0.905752,0.590957 l 3.649688,-3.649684 c 0.74835,-0.748355 2.10736,-0.610651 1.359,0.137704 l -4.023417,4.023419 c -0.748355,0.748355 0.325367,1.171342 1.073727,0.422988 l 5.39127,-5.391276 m -2.56694,-12.400155 4.76451,-4.764502 c 0.74835,-0.748355 1.76631,-0.269608 1.01796,0.478747 l -3.74053,3.740524 c -0.74835,0.748355 0.45635,1.04036 1.20471,0.292006 l 3.47204,-3.472045 c 0.74836,-0.748355 1.60762,-0.110904 0.85926,0.637451 l -3.3318,3.331802 c -0.74835,0.748355 0.0899,1.40684 0.83822,0.658486 l 3.28999,-3.289988 c 0.74836,-0.748355 1.47816,0.01855 0.7298,0.766906 l -3.31687,3.31687 c -0.74835,0.748355 -0.16919,1.665903 0.57917,0.917548 l 3.40837,-3.408372 c 0.74835,-0.748355 1.3558,0.140903 0.60745,0.889258 l -3.58345,3.583445 c -0.74835,0.748355 -0.49517,1.99188 0.25319,1.243526 l 3.86895,-3.868952 c 0.74835,-0.748355 1.20593,0.290774 0.45758,1.039129 l -4.29672,4.296714 c -0.74835,0.748355 -1.21515,2.711862 -0.46679,1.963507 l 5.13584,-5.13584 c 0.74835,-0.748355 1.02546,0.471251 0.2771,1.219605 l -13.67763,13.677627 c -0.74835,0.748355 0.53497,0.961739 1.28333,0.213384 l 12.56941,-12.569416 c 0.74836,-0.748355 0.78399,0.712728 0.0356,1.461083 l -11.19584,11.195839 c -0.74835,0.748355 0.80715,0.689563 1.5555,-0.05879 l 9.53576,-9.535758 c 0.74836,-0.748355 0.39502,1.101694 -0.35334,1.850049 l -7.38203,7.382031 c -0.74836,0.748355 1.56352,-0.06681 2.31187,-0.815164 l 4.73183,-4.731827 m -17.814768,4.381287 -2.852356,-2.852356 m -1.506637,-3.003346 6.752597,6.752597 c 0.748355,0.748355 2.719684,1.222976 1.971334,0.474621 L 92.322995,69.653229 C 91.57464,68.904874 91.384122,67.217647 92.132477,67.966002 L 102.6774,78.510925 c 0.74835,0.748355 2.21697,0.720257 1.46861,-0.0281 L 92.116274,66.45309 c -0.748355,-0.748355 -0.628816,-2.125525 0.119539,-1.37717 L 105.4831,78.323208 c 0.74836,0.748355 1.9692,0.472487 1.22084,-0.275868 l -5.48685,-5.486847 c -0.74835,-0.748355 1.60248,0.105769 2.35084,0.854124 l 4.25503,4.255034 c 0.74836,0.748355 1.77359,0.276877 1.02523,-0.471478 l -3.80434,-3.804343 c -0.74836,-0.748355 0.44185,-1.054864 1.1902,-0.306509 l 3.55661,3.556615 c 0.74836,0.748355 1.61224,0.115529 0.86389,-0.632826 l -3.43542,-3.435416 c -0.74835,-0.748355 0.0845,-1.41221 0.83286,-0.663855 l 3.40184,3.401849 c 0.74836,0.748355 1.47935,-0.01736 0.731,-0.765717 l -3.42482,-3.424822 c -0.74836,-0.748355 -0.15448,-1.651182 0.59388,-0.902828 l 3.50039,3.500392 c 0.74835,0.748355 1.35246,-0.144252 0.6041,-0.892607 l -3.65224,-3.652239 c -0.74835,-0.748355 -0.4716,-1.968311 0.27676,-1.219956 l 3.90771,3.907718 c 0.74836,0.748355 1.20256,-0.294148 0.45421,-1.042502 l -4.33227,-4.332269 c -0.74835,-0.748355 -1.1155,-2.612209 -0.36714,-1.863854 l 5.06433,5.064337 c 0.74836,0.748355 1.01772,-0.478997 0.26936,-1.227352 L 101.38911,54.772 c -0.74835,-0.748355 -1.922029,-0.425322 -1.17368,0.323032 l 4.64975,4.649741 c 0.74835,0.748355 -0.9892,0.50751 -1.73756,-0.240845 l -3.984745,-3.984747 c -0.748355,-0.748355 -1.732327,-0.235618 -0.983972,0.512737 l 3.633437,3.633441 c 0.74836,0.748355 -0.34048,1.156227 -1.08883,0.407872 l -3.449161,-3.449158 c -0.748355,-0.748355 -1.581772,-0.08506 -0.833418,0.663292 l 3.373517,3.373517 c 0.748352,0.748355 -0.01978,1.476933 -0.768131,0.728578 l -3.370728,-3.370728 c -0.748355,-0.748355 -1.456068,0.04064 -0.707713,0.788996 l 3.420724,3.420724 c 0.748355,0.748355 0.211883,1.708593 -0.536471,0.960238 L 94.301168,59.657729 C 93.552813,58.909374 92.97383,59.8271 93.722184,60.575455 l 3.723225,3.723225 c 0.748355,0.748355 0.556435,2.053144 -0.191919,1.30479 l -4.033633,-4.033633 c -0.748355,-0.748355 -1.169649,0.32706 -0.421294,1.075415 l 4.533624,4.533624 c 0.748355,0.748355 1.673164,3.169873 0.92481,2.421519 l -6.351104,-6.351104 m 23.892097,4.434873 -13.12634,-13.126335 c -0.74835,-0.748355 0.66048,-0.836226 1.40884,-0.08787 L 115.27513,65.6646 c 0.74836,0.748355 0.63574,-0.860971 -0.11262,-1.609326 l -9.53557,-9.535579 c -0.74836,-0.748355 1.07597,-0.420733 1.82433,0.327622 l 7.33563,7.335638 c 0.74836,0.748355 -0.0807,-1.5774 -0.82904,-2.325754 l -4.79059,-4.790588"
           id="path18087" />
      </g>
      <g
         id="g18094"
         style="stroke-width:0.1;stroke-miterlimit:4;stroke-dasharray:none">
        <path
           d="m 135.31894,59.680853 q 0,0.344509 -0.37896,0.344509 -0.65456,0 -5.18487,-0.258382 -0.10335,4.358046 -0.10335,6.080594 0,2.032606 0.15503,6.115044 0.17226,4.082439 0.17226,6.115045 0,0.327284 -0.15503,0.413411 -0.0517,0.03445 -0.48232,0.08613 -1.03353,0.137804 -3.03168,0.137804 -2.22209,0 -3.11781,-0.137804 -0.48232,-0.08613 -0.48232,-0.53399 0,-2.032606 0.17226,-6.097819 0.17225,-4.065213 0.17225,-6.097819 0,-1.343588 -0.1378,-5.994467 -3.4451,0.34451 -5.49493,0.34451 -0.2756,0 -0.2756,-0.172255 0,-0.223931 0.24115,-1.326362 0.27561,-1.205783 0.31006,-1.464165 0.0517,-0.809598 0.12058,-1.619195 0.12058,-1.291911 0.41341,-1.291911 0.0345,0 0.24116,0.01723 2.79052,0.361735 8.251,0.361735 1.55029,0 5.71886,-0.327285 2.23931,-0.172254 2.25654,-0.172254 0.34451,0 0.39618,0.05168 0.0517,0.03445 0.0689,0.327284 0,0.465088 -0.0345,1.291911 -0.0344,0.91295 -0.0344,1.291911 0,0.430637 0.10336,1.274685 0.12057,0.826823 0.12057,1.240235 z"
           style="font-size:35.2778px;fill:none;stroke:#000000;stroke-width:0.1;stroke-miterlimit:4;stroke-dasharray:none;stroke-opacity:1"
           id="path17737" />
        <path
           style="fill:none;stroke:#000000;stroke-width:0.1;stroke-miterlimit:4;stroke-dasharray:none"
           d="m 117.90355,56.205029 1.05748,-1.057472 c 0.74835,-0.748355 2.13893,-0.642221 1.39057,0.106134 l -2.09147,2.091467 c -0.74835,0.748355 -1.14824,2.64495 -0.39988,1.896595 l 3.92066,-3.920663 c 0.74836,-0.748355 2.20139,-0.704676 1.45303,0.04368 l -4.1171,4.1171 c -0.74835,0.748355 0.83622,0.660492 1.58457,-0.08786 l 4.0052,-4.0052 c 0.74836,-0.748355 2.23802,-0.741305 1.48966,0.007 l -3.8692,3.869199 c -0.74835,0.748355 0.5397,0.957017 1.28805,0.208662 l 4.12894,-4.128934 c 0.74835,-0.748355 2.33713,-0.840428 1.58878,-0.09207 l -5.67833,5.67833 c -0.74836,0.748355 -0.70897,2.205678 0.0394,1.457323 l 7.2491,-7.249095 c 0.74835,-0.748355 2.36693,-0.870218 1.61857,-0.121864 l -8.83333,8.833331 c -0.74835,0.748355 -0.72901,2.225724 0.0193,1.47737 L 134.2024,54.873273 c 0.74836,-0.748355 0.9926,0.504108 0.24425,1.252462 l -3.00853,3.008529 c -0.74836,0.748355 0.67112,0.825593 1.41947,0.07724 l 1.54486,-1.54486 c 0.74836,-0.748355 0.85566,0.641048 0.10731,1.389402 l -0.79079,0.79079 m -10.5526,7.559182 5.86984,-5.869845 c 0.74836,-0.748355 0.71632,0.780388 -0.032,1.528742 l -5.31731,5.317308 c -0.74835,0.748355 -0.80201,2.29872 -0.0537,1.550365 l 5.34277,-5.342771 c 0.74835,-0.748355 0.73249,0.764211 -0.0159,1.512566 l -5.38854,5.388542 c -0.74836,0.748355 -0.80999,2.306695 -0.0616,1.55834 l 5.45825,-5.458251 c 0.74835,-0.748355 0.79644,0.700272 0.0481,1.448626 l -5.55853,5.558526 c -0.74835,0.748355 -0.78713,2.283841 -0.0388,1.535487 l 5.62342,-5.623424 c 0.74836,-0.748355 0.79897,0.697737 0.0506,1.446092 l -5.67158,5.671576 c -0.74835,0.748355 0.41405,1.082665 1.1624,0.33431 l 4.56373,-4.563732 c 0.74836,-0.748355 0.80243,0.694281 0.0541,1.442636 l -3.17328,3.173274 c -0.74835,0.748355 0.74728,0.749426 1.49564,0.0011 l 1.72295,-1.722953 c 0.74836,-0.748355 0.77859,0.718119 0.0302,1.466474 l -0.76133,0.761329 m -4.29991,0.01512 -0.80429,-0.804297 c -0.74836,-0.748355 -0.71813,-2.214837 0.0302,-1.466483 l 1.75215,1.75215 c 0.74836,0.748355 2.24106,0.744352 1.49271,-0.004 l -3.19942,-3.199422 c -0.74836,-0.748355 -0.69407,-2.190774 0.0543,-1.442419 l 4.58072,4.580725 c 0.74836,0.748355 1.9098,0.413085 1.16144,-0.335269 l -5.68522,-5.685225 c -0.74836,-0.748355 -0.69219,-2.188896 0.0562,-1.440541 l 5.61378,5.613784 c 0.74835,0.748355 0.7091,-0.787607 -0.0392,-1.535962 l -5.53614,-5.536137 c -0.74836,-0.748355 -0.70455,-2.201254 0.0438,-1.452899 l 5.43993,5.439927 c 0.74835,0.748355 0.68697,-0.809733 -0.0614,-1.558088 l -5.37065,-5.370646 c -0.74835,-0.748355 -0.77305,-2.269758 -0.0247,-1.521404 l 5.3401,5.340102 c 0.74835,0.748355 0.7006,-0.796104 -0.0478,-1.544459 l -5.33152,-5.331516 c -0.74835,-0.748355 -0.78993,-2.286638 -0.0416,-1.538283 l 5.33677,5.336775 c 0.74836,0.748355 0.73063,-0.766081 -0.0177,-1.514436 L 118.73482,55.09377 c -0.74835,-0.748355 -0.98542,0.511284 -0.23707,1.259639 l 2.89436,2.894356 c 0.74836,0.748355 -0.63388,0.862833 -1.38223,0.114478 l -1.61533,-1.615327 c -0.74835,-0.748355 -0.99941,0.497294 -0.25106,1.245648 l 0.82652,0.826516 c 0.26256,0.262565 -1.1878,0.308908 -1.45037,0.04634 l -0.19692,-0.196924 m 2.42112,-5.062423 9.22692,9.226917 c 0.74835,0.748355 0.773,-0.723703 0.0246,-1.472058 l -7.08481,-7.08481 c -0.74836,-0.748355 0.81433,-0.682379 1.56268,0.06598 l 5.55285,5.552844 c 0.74835,0.748355 0.77907,-0.717636 0.0307,-1.465991 l -4.05141,-4.051411 c -0.74835,-0.748355 0.76379,-0.732919 1.51215,0.01544 L 130.2556,59.131 c 0.74836,0.748355 2.33119,0.834482 1.58284,0.08613 l -3.83467,-3.834665 c -0.74835,-0.748355 0.68312,-0.813598 1.43147,-0.06524 l 3.9802,3.980196 c 0.74835,0.748355 1.98002,0.483314 1.23166,-0.265041 l -3.80452,-3.804521 c -0.74835,-0.748355 0.64692,-0.849789 1.39528,-0.101435 l 2.20934,2.209339 c 0.74835,0.748355 0.72044,-0.776268 -0.0279,-1.524623 l -1.06718,-1.067178 c -0.37822,-0.378224 1.01234,-0.484373 1.39056,-0.106149 l 0.28367,0.283668"
           id="path18092" />
      </g>
      <g
         id="g18099"
         style="stroke-width:0.1;stroke-miterlimit:4;stroke-dasharray:none">
        <path
           d="m 153.93969,59.680853 q 0,0.344509 -0.37896,0.344509 -0.65457,0 -5.18487,-0.258382 -0.10336,4.358046 -0.10336,6.080594 0,2.032606 0.15503,6.115044 0.17226,4.082439 0.17226,6.115045 0,0.327284 -0.15503,0.413411 -0.0517,0.03445 -0.48231,0.08613 -1.03353,0.137804 -3.03169,0.137804 -2.22208,0 -3.11781,-0.137804 -0.48231,-0.08613 -0.48231,-0.53399 0,-2.032606 0.17225,-6.097819 0.17226,-4.065213 0.17226,-6.097819 0,-1.343588 -0.13781,-5.994467 -3.44509,0.34451 -5.49492,0.34451 -0.27561,0 -0.27561,-0.172255 0,-0.223931 0.24115,-1.326362 0.27561,-1.205783 0.31006,-1.464165 0.0517,-0.809598 0.12058,-1.619195 0.12058,-1.291911 0.41341,-1.291911 0.0344,0 0.24116,0.01723 2.79053,0.361735 8.251,0.361735 1.5503,0 5.71886,-0.327285 2.23931,-0.172254 2.25654,-0.172254 0.34451,0 0.39619,0.05168 0.0517,0.03445 0.0689,0.327284 0,0.465088 -0.0344,1.291911 -0.0345,0.91295 -0.0345,1.291911 0,0.430637 0.10335,1.274685 0.12058,0.826823 0.12058,1.240235 z"
           style="font-size:35.2778px;fill:none;stroke:#000000;stroke-width:0.1;stroke-miterlimit:4;stroke-dasharray:none;stroke-opacity:1"
           id="path17739" />
        <path
           style="fill:none;stroke:#000000;stroke-width:0.1;stroke-miterlimit:4;stroke-dasharray:none"
           d="m 136.52429,56.20503 1.05748,-1.057473 c 0.74835,-0.748355 2.13893,-0.642221 1.39057,0.106134 l -2.09147,2.091468 c -0.74835,0.748355 -1.14824,2.64495 -0.39988,1.896595 l 3.92066,-3.920664 c 0.74836,-0.748355 2.20139,-0.704676 1.45303,0.04368 l -4.1171,4.1171 c -0.74835,0.748355 0.83622,0.660492 1.58457,-0.08786 l 4.0052,-4.0052 c 0.74836,-0.748355 2.23802,-0.741305 1.48966,0.007 l -3.8692,3.869199 c -0.74835,0.748355 0.5397,0.957017 1.28805,0.208663 l 4.12894,-4.128934 c 0.74835,-0.748355 2.33713,-0.840428 1.58878,-0.09207 l -5.67833,5.678328 c -0.74836,0.748355 -0.70897,2.205675 0.0394,1.45732 l 7.24909,-7.24909 c 0.74835,-0.748355 2.36693,-0.870218 1.61857,-0.121864 l -8.83332,8.833323 c -0.74836,0.748355 -0.72901,2.225723 0.0193,1.477368 l 10.45482,-10.454822 c 0.74836,-0.748355 0.99268,0.504027 0.24433,1.252381 l -3.00861,3.008609 c -0.74835,0.748355 0.67112,0.825593 1.41947,0.07724 l 1.54487,-1.544872 c 0.74836,-0.748355 0.85565,0.641061 0.1073,1.389415 l -0.79079,0.790789 m -10.55259,7.559175 5.86984,-5.869844 c 0.74836,-0.748355 0.71632,0.780391 -0.032,1.528746 l -5.3173,5.317306 c -0.74836,0.748355 -0.80202,2.298723 -0.0537,1.550368 l 5.34277,-5.342769 c 0.74835,-0.748355 0.73249,0.764213 -0.0159,1.512568 l -5.38854,5.388542 c -0.74836,0.748355 -0.80998,2.306691 -0.0616,1.558337 l 5.45825,-5.458247 c 0.74835,-0.748355 0.79644,0.700271 0.0481,1.448626 l -5.55852,5.558519 c -0.74835,0.748355 -0.78713,2.283839 -0.0388,1.535485 l 5.62341,-5.623415 c 0.74836,-0.748355 0.79897,0.697737 0.0506,1.446092 l -5.67157,5.671569 c -0.74835,0.748355 0.41404,1.08267 1.16239,0.334316 l 4.56373,-4.563731 c 0.74836,-0.748355 0.80243,0.694281 0.0541,1.442636 l -3.17328,3.173273 c -0.74835,0.748355 0.74729,0.749426 1.49564,0.0011 l 1.72295,-1.722953 c 0.74836,-0.748355 0.77859,0.718119 0.0302,1.466474 l -0.76133,0.761329 m -4.29991,0.01512 -0.80428,-0.804288 c -0.74836,-0.748355 -0.71813,-2.214839 0.0302,-1.466484 l 1.75214,1.752143 c 0.74836,0.748355 2.24107,0.744352 1.49271,-0.004 l -3.19942,-3.199418 c -0.74835,-0.748355 -0.69406,-2.190777 0.0543,-1.442422 l 4.58073,4.580725 c 0.74835,0.748355 1.90979,0.413084 1.16143,-0.335271 l -5.68522,-5.685224 c -0.74835,-0.748355 -0.69218,-2.188893 0.0562,-1.440538 l 5.61378,5.61378 c 0.74836,0.748355 0.7091,-0.787607 -0.0393,-1.535962 l -5.53614,-5.536135 c -0.74835,-0.748355 -0.70453,-2.201247 0.0438,-1.452893 l 5.43992,5.439918 c 0.74835,0.748355 0.68697,-0.809733 -0.0614,-1.558088 l -5.37064,-5.370636 c -0.74835,-0.748355 -0.77305,-2.26976 -0.0247,-1.521406 l 5.34009,5.340094 c 0.74836,0.748355 0.70061,-0.796104 -0.0478,-1.544459 l -5.33151,-5.33151 c -0.74835,-0.748355 -0.78993,-2.286641 -0.0416,-1.538286 l 5.33677,5.336773 c 0.74835,0.748355 0.73063,-0.766081 -0.0177,-1.514436 L 137.35557,55.093769 c -0.74836,-0.748355 -0.98543,0.511284 -0.23707,1.259638 l 2.89435,2.894357 c 0.74836,0.748355 -0.63387,0.862833 -1.38223,0.114478 l -1.61532,-1.615328 c -0.74836,-0.748355 -0.99942,0.497294 -0.25107,1.245648 l 0.82652,0.826517 c 0.26257,0.262565 -1.1878,0.308908 -1.45037,0.04634 l -0.19692,-0.196924 m 2.42112,-5.062421 9.22692,9.226918 c 0.74835,0.748355 0.77301,-0.723701 0.0247,-1.472056 l -7.08481,-7.084812 c -0.74835,-0.748355 0.81433,-0.682379 1.56268,0.06598 l 5.55285,5.552849 c 0.74836,0.748355 0.77908,-0.717633 0.0307,-1.465988 l -4.05141,-4.051419 c -0.74836,-0.748355 0.76379,-0.732919 1.51214,0.01544 l 3.73802,3.738022 c 0.74836,0.748355 2.33119,0.834482 1.58284,0.08613 l -3.83467,-3.834665 c -0.74835,-0.748355 0.68312,-0.813597 1.43147,-0.06524 l 3.9802,3.980196 c 0.74835,0.748355 1.98002,0.483316 1.23167,-0.265038 l -3.80452,-3.804523 c -0.74836,-0.748355 0.64692,-0.84979 1.39527,-0.101435 l 2.20934,2.209344 c 0.74836,0.748355 0.7205,-0.776215 -0.0279,-1.524569 l -1.06722,-1.067225 c -0.37824,-0.37824 1.01232,-0.484389 1.39056,-0.106149 l 0.28368,0.28368"
           id="path18097" />
      </g>
      <g
         id="g18104"
         style="stroke-width:0.1;stroke-miterlimit:4;stroke-dasharray:none">
        <path
           d="m 173.4217,73.220078 q 0,0.740696 -0.29284,2.721626 -0.31006,2.153184 -0.55121,2.566596 -0.20671,0.327284 -0.56844,0.327284 -0.15503,0 -0.51677,-0.05168 -1.25746,-0.172255 -7.33805,-0.172255 -1.32636,0 -3.94464,-0.01723 -2.61827,-0.01722 -3.9274,-0.01722 -0.56845,0 -0.56845,-0.499539 0,-1.929254 0.20671,-5.787761 0.22393,-3.875732 0.22393,-5.804986 0,-1.963704 -0.2067,-7.320828 -0.0517,-1.378038 -0.18948,-4.116889 l -0.0172,-0.241157 q -0.0345,-0.396186 0.43064,-0.396186 1.27468,0 3.82405,0.0689 2.5666,0.0689 3.84129,0.0689 1.25745,0 3.7896,-0.0689 2.53215,-0.0689 3.78961,-0.0689 0.89572,0 1.03352,0.671794 0.0861,0.396186 0.25839,2.411567 0.18948,1.998155 0.18948,2.428792 0,0.361735 -0.34451,0.361735 -0.10336,0 -0.36174,-0.01722 -4.58198,-0.378961 -8.23378,-0.378961 -0.91295,0 -1.11965,0.430637 -0.0861,0.206706 -0.0861,1.326362 0,1.171333 0.34451,1.550293 0.29283,0.327284 1.11966,0.327284 0.17225,0 0.67179,-0.01723 0.49954,-0.03445 0.82682,-0.03445 2.17041,0 4.3925,-0.120579 0.18948,-0.01723 0.9474,-0.08613 0.58567,-0.0689 0.93018,-0.0689 0.41341,0 0.41341,0.396186 0,-0.361735 -0.31006,2.635498 -0.1378,1.378038 -0.1378,2.756077 0,0.344509 -0.49954,0.344509 0,0 -1.5503,-0.172255 -0.98185,-0.103352 -4.47862,-0.103352 h -1.8259 q -0.70625,0 -0.82682,0.344509 -0.0172,0.08613 -0.0172,1.06798 0,1.309136 0.17225,1.688097 0.29284,0.654568 2.20487,0.775146 -0.0345,0 2.51492,0 0.91295,0 2.7044,-0.155029 1.80867,-0.172255 2.7044,-0.172255 0.37896,0 0.37896,0.620117 z"
           style="font-size:35.2778px;fill:none;stroke:#000000;stroke-width:0.1;stroke-miterlimit:4;stroke-dasharray:none;stroke-opacity:1"
           id="path17741" />
        <path
           style="fill:none;stroke:#000000;stroke-width:0.1;stroke-miterlimit:4;stroke-dasharray:none"
           d="m 156.80526,54.549109 -0.45237,0.452371 c -0.60316,0.603161 -0.53397,2.03068 0.0692,1.427519 l 1.29618,-1.29618 c 0.74835,-0.748355 2.21117,-0.714468 1.46282,0.03389 l -2.5858,2.585798 c -0.74835,0.748355 -0.69057,2.187279 0.0578,1.438925 l 3.99099,-3.990995 c 0.74836,-0.748355 2.21671,-0.720005 1.46836,0.02835 l -5.40642,5.406419 c -0.74835,0.748355 -0.70037,2.19708 0.048,1.448725 l 6.84637,-6.846364 c 0.74835,-0.748355 2.26502,-0.768317 1.51667,-0.01996 l -8.32035,8.320349 c -0.74835,0.748355 -0.71688,2.213591 0.0315,1.465236 l 9.82137,-9.821362 c 0.74835,-0.748355 2.28084,-0.784131 1.53248,-0.03578 l -4.06926,4.069266 c -0.74836,0.748355 0.76033,0.736377 1.50868,-0.01198 l 4.0875,-4.0875 c 0.74836,-0.748355 2.22733,-0.730619 1.47898,0.01774 l -4.10479,4.104786 c -0.74835,0.748355 0.69152,0.805188 1.43988,0.05683 l 3.2816,-3.281602 c 0.74835,-0.748355 0.88711,0.609599 0.13875,1.357953 l -2.00092,2.000929 c -0.74836,0.748355 0.65554,0.84116 1.4039,0.0928 l 0.99761,-0.997614 c 0.37697,-0.376966 0.49075,1.005959 0.11379,1.382925 l -0.28273,0.282725 m -15.90553,6.925278 5.80589,-5.80589 c 0.74836,-0.748355 0.74346,0.753246 -0.005,1.501601 l -5.27859,5.278585 c -0.74835,0.748355 -0.81383,2.310541 -0.0655,1.562187 l 5.72591,-5.725912 c 0.74835,-0.748355 1.89737,-0.400661 1.14901,0.347694 l -6.95703,6.95703 c -0.74835,0.748355 -0.82946,2.326169 -0.0811,1.577815 l 8.58773,-8.587734 c 0.74836,-0.748355 2.26145,-0.764737 1.51309,-0.01638 l -10.17241,10.172413 c -0.74836,0.748355 -0.80316,2.299866 -0.0548,1.551511 l 5.61633,-5.616336 c 0.74836,-0.748355 0.78735,0.709362 0.039,1.457717 l -5.7136,5.713596 c -0.74836,0.748355 0.28869,1.208018 1.03705,0.459663 l 4.93348,-4.933483 c 0.74835,-0.748355 1.7416,-0.244895 0.99325,0.50346 l -4.43656,4.436557 c -0.74835,0.748355 0.74182,0.754888 1.49018,0.0065 l 4.27841,-4.278416 c 0.74836,-0.748355 2.24507,-0.748355 1.49671,0 l -4.28493,4.284931 c -0.74835,0.748355 0.74185,0.754864 1.4902,0.0065 l 4.30556,-4.305558 c 0.74835,-0.748355 2.34535,-0.848641 1.59699,-0.100286 l -4.41228,4.412288 c -0.74836,0.748355 0.74249,0.754215 1.49084,0.0059 l 4.55492,-4.554917 c 0.74836,-0.748355 2.33088,-0.834174 1.58253,-0.08582 l -4.65092,4.650923 c -0.74836,0.748355 0.72606,0.770649 1.47441,0.02229 l 3.35718,-3.357174 c 0.74835,-0.748355 0.53373,0.96297 -0.21462,1.711324 l -1.68864,1.688642 c -0.74836,0.748355 0.62464,0.872067 1.37299,0.123713 l 0.57903,-0.579025 m -3.95866,-14.001849 -4.85333,4.853327 c -0.74835,0.748355 0.78639,0.710325 1.53474,-0.03803 l 4.33648,-4.336478 c 0.74835,-0.748355 2.38827,-0.891559 1.63991,-0.143205 l -4.4836,4.483606 c -0.74836,0.748355 0.73283,0.763877 1.48118,0.01552 l 3.12872,-3.128714 c 0.74835,-0.748355 0.6155,0.881205 -0.13285,1.62956 l -1.54022,1.540218 c -0.74836,0.748355 0.61837,0.878338 1.36673,0.129983 l 0.5856,-0.585604 m -15.27397,10.483261 -0.35241,-0.352413 c -0.46989,-0.469884 -0.43994,-1.936652 0.0299,-1.466768 l 1.26451,1.264507 c 0.74835,0.748355 2.25165,0.754946 1.5033,0.0066 l -2.50667,-2.506668 c -0.74835,-0.748355 -0.68316,-2.179865 0.0652,-1.43151 l 3.94475,3.944755 c 0.74836,0.748355 2.25163,0.754921 1.50328,0.0066 l -5.37555,-5.375548 c -0.74835,-0.748355 -0.67207,-2.168782 0.0763,-1.420428 l 6.80654,6.806541 c 0.74836,0.748355 2.24701,0.750298 1.49865,0.0019 l -8.24045,-8.24045 c -0.74835,-0.748355 -0.71653,-2.213245 0.0318,-1.46489 l 9.71332,9.713318 c 0.74836,0.748355 2.26804,0.771334 1.51969,0.02298 l -11.2022,-11.202294 c -0.74835,-0.748355 -0.77294,-2.269652 -0.0246,-1.521297 l 5.24715,5.247149 c 0.74835,0.748355 0.7502,-0.746505 0.002,-1.494859 l -5.28996,-5.289951 c -0.74835,-0.748355 -0.79744,-2.294155 -0.0491,-1.5458 l 6.22211,6.222102 c 0.74835,0.748355 2.23335,0.736641 1.48499,-0.01171 l -7.76406,-7.764062 c -0.74836,-0.748355 -0.80954,-2.306253 -0.0612,-1.557898 l 9.32633,9.326335 c 0.74836,0.748355 2.26232,0.76561 1.51397,0.01726 l -10.91017,-10.91017 c -0.74836,-0.748355 -0.82459,-2.321303 -0.0762,-1.572948 l 5.637,5.637001 c 0.74836,0.748355 0.74058,-0.756129 -0.008,-1.504484 l -4.92079,-4.920791 c -0.74836,-0.748355 0.7693,-0.727402 1.51766,0.02095 l 4.12228,4.122286 c 0.74836,0.748355 2.19232,0.695609 1.44397,-0.05275 l -4.03405,-4.034047 c -0.74835,-0.748355 0.78368,-0.713025 1.53204,0.03533 l 4.03295,4.032946 c 0.74835,0.748355 2.30399,0.807289 1.55564,0.05893 l -4.06266,-4.062662 c -0.74836,-0.748355 0.75614,-0.740566 1.5045,0.0078 l 4.14147,4.14147 c 0.74835,0.748355 2.353,0.85629 1.60464,0.107936 l -4.26911,-4.269111 c -0.74835,-0.748355 0.71421,-0.782499 1.46257,-0.03415 l 4.38864,4.388642 c 0.74835,0.748355 0.74869,-0.748013 3.4e-4,-1.496368 l -2.92642,-2.926419 c -0.74836,-0.748355 0.71725,-0.779456 1.46561,-0.0311 l 1.48919,1.489193 c 0.51636,0.51636 0.34387,-1.152838 -0.17249,-1.669198 l -0.38727,-0.38727 m -1.43673,24.00732 -4.98468,-4.984679 c -0.74836,-0.748355 0.79591,-0.7008 1.54426,0.04756 l 4.50562,4.505624 c 0.74836,0.748355 1.59312,0.09641 0.84476,-0.65195 l -3.85367,-3.853674 c -0.74836,-0.748355 0.68976,-0.806954 1.43811,-0.0586 l 2.6695,2.669501 c 0.74836,0.748355 0.9443,-0.55241 0.19595,-1.300765 l -1.50387,-1.503864 c -0.74835,-0.748355 0.66371,-0.832997 1.41207,-0.08464 l 0.83866,0.838657 m -3.69101,-5.187711 -4.77743,-4.777429 c -0.74835,-0.748355 0.6975,-0.799214 1.44585,-0.05086 l 4.44384,4.44384 c 0.74836,0.748355 1.33894,-0.157776 0.59058,-0.90613 l -3.55347,-3.553475 c -0.74836,-0.748355 0.70868,-0.788023 1.45704,-0.03967 l 2.16942,2.169418 c 0.74835,0.748355 0.88398,-0.612731 0.13562,-1.361085 L 170.4152,63.86888 c -0.51126,-0.511252 0.86131,-0.635394 1.37256,-0.124142 l 0.38344,0.383439"
           id="path18102" />
      </g>
      <g
         id="g18109"
         style="stroke-width:0.1;stroke-miterlimit:4;stroke-dasharray:none">
        <path
           d="m 196.24546,78.404947 q 0,0.120578 -0.34451,0.172255 -0.65457,0.103353 -3.29006,0.103353 -2.25654,0 -3.06614,-0.103353 -0.37896,-0.05168 -0.43064,-0.08613 -0.10335,-0.05168 -0.24115,-0.344509 -0.25838,-0.671794 -0.75792,-1.998156 -0.6718,-1.722547 -2.10151,-5.081515 -0.31006,-0.671794 -1.42972,-0.740696 0.51677,0.03445 -1.77422,0.03445 -0.25838,0 -0.25838,0.878499 0,1.171333 0.2067,3.496772 0.22393,2.32544 0.22393,3.496772 0,0.292833 -0.15502,0.34451 -0.24116,0.01722 -0.48232,0.03445 -1.0163,0.0689 -3.16949,0.0689 -2.46324,0 -2.96278,-0.103353 -0.49954,-0.103353 -0.49954,-0.53399 0,-1.894803 0.17226,-5.718859 0.18948,-3.824056 0.18948,-5.736084 0,-7.286377 -0.32729,-11.368815 l -0.0172,-0.241157 q -0.0172,-0.292833 0.53399,-0.396186 0.56844,-0.103353 5.27099,-0.206706 3.18672,-0.0689 5.08152,-0.0689 3.92741,0 6.40788,1.774224 2.80775,1.998155 2.80775,5.770535 0,2.51492 -0.72347,4.013536 -0.72347,1.498617 -2.66995,2.911106 -0.39618,0.275608 -0.39618,0.516764 0,-0.01723 2.1015,4.323595 2.10151,4.340821 2.10151,4.788683 z m -7.2347,-15.451254 q 0,-2.101508 -1.37804,-2.911105 -1.06798,-0.620118 -3.34174,-0.620118 -1.63642,0 -1.73977,0.499539 -0.10336,0.585667 -0.10336,3.376194 0,0.396186 0.0172,1.171332 0.0172,0.775147 0.0172,1.154108 0,0.08613 0.55121,0.172254 1.05075,0.15503 2.20486,0.15503 3.77238,0 3.77238,-2.997234 z"
           style="font-size:35.2778px;fill:none;stroke:#000000;stroke-width:0.1;stroke-miterlimit:4;stroke-dasharray:none;stroke-opacity:1"
           id="path17743" />
        <path
           style="fill:none;stroke:#000000;stroke-width:0.1;stroke-miterlimit:4;stroke-dasharray:none"
           d="m 176.76921,54.664698 -0.43353,0.43353 c -0.57804,0.57804 -0.48708,1.983782 0.091,1.405742 l 1.34697,-1.346966 c 0.74835,-0.748355 2.29218,-0.795468 1.54382,-0.04711 l -2.69342,2.693417 c -0.74835,0.748355 -0.69599,2.192706 0.0524,1.444351 l 4.20783,-4.207826 c 0.74835,-0.748355 2.24124,-0.744534 1.49289,0.0038 l -5.66255,5.662545 c -0.74835,0.748355 -0.72198,2.218688 0.0264,1.470333 l 7.15974,-7.159738 c 0.74835,-0.748355 2.25678,-0.76007 1.50842,-0.01172 l -8.65169,8.651696 c -0.74836,0.748355 -0.7403,2.237004 0.008,1.48865 l 10.1557,-10.155691 c 0.74835,-0.748355 2.07698,-0.580276 1.32863,0.168079 l -3.57467,3.574662 c -0.74835,0.748355 0.69313,0.80358 1.44149,0.05523 l 3.37333,-3.373336 c 0.74836,-0.748355 1.87255,-0.375834 1.12419,0.37252 l -3.22693,3.226937 c -0.74836,0.748355 0.29016,1.206548 1.03851,0.458194 l 3.20151,-3.201505 c 0.74835,-0.748355 1.65464,-0.157938 0.90629,0.590416 l -3.36917,3.369166 c -0.74835,0.748355 -0.31908,1.815792 0.42927,1.067438 l 3.73971,-3.739707 c 0.74836,-0.748355 1.42118,0.07553 0.67282,0.823888 l -4.87021,4.870211 m -12.936,3.955746 5.57973,-5.579729 c 0.74835,-0.748355 0.72667,0.770039 -0.0217,1.518393 l -5.0308,5.030805 c -0.74836,0.748355 -0.80485,2.301556 -0.0565,1.553202 l 5.09501,-5.095014 c 0.74835,-0.748355 0.77025,0.726462 0.0219,1.474817 l -5.18738,5.187384 c -0.74836,0.748355 -0.81614,2.312849 -0.0678,1.564495 l 6.32267,-6.322667 c 0.74836,-0.748355 2.1471,-0.650392 1.39875,0.09796 l -7.78056,7.780561 c -0.74836,0.748355 -0.79334,2.290044 -0.045,1.54169 L 186.43459,65.95324 m -2.77377,4.270478 10.87966,-10.879661 c 0.74836,-0.748355 1.1253,0.371412 0.37695,1.119766 l -9.24249,9.242484 c -0.74835,0.748355 0.17513,1.321579 0.92349,0.573225 l 8.51537,-8.515375 c 0.74836,-0.748355 0.74778,0.748931 -5.7e-4,1.497286 l -8.05262,8.052615 c -0.74835,0.748355 -0.30469,1.801403 0.44366,1.053049 l 7.50476,-7.504759 c 0.59013,-0.590134 -0.56237,2.059082 -1.15251,2.649216 l -0.4426,0.442601 m -10.99064,3.5071 -6.03361,6.033603 c -0.74835,0.748355 0.29934,1.197368 1.0477,0.449014 l 4.48521,-4.485215 c 0.74836,-0.748355 0.8527,0.644012 0.10435,1.392367 l -3.13104,3.131039 c -0.74836,0.748355 0.74626,0.75045 1.49461,0.0021 l 1.75689,-1.756893 c 0.74836,-0.748355 0.84828,0.648429 0.0999,1.396783 l -0.89777,0.897774 m 6.034,-4.537293 4.00997,-4.009973 c 0.74836,-0.748355 1.24021,0.256501 0.49185,1.004855 l -3.50593,3.505937 c -0.74836,0.748355 -0.32192,1.81863 0.42643,1.070275 l 3.56818,-3.568176 c 0.74835,-0.748355 1.23702,0.259689 0.48866,1.008044 l -3.64524,3.645247 c -0.74836,0.748355 -0.31631,1.81301 0.43205,1.064655 l 3.70186,-3.701859 c 0.74835,-0.748355 1.23299,0.263723 0.48463,1.012078 l -2.92773,2.927733 c -0.74836,0.748355 0.70975,0.786958 1.4581,0.0386 l 1.95306,-1.953057 c 0.74836,-0.748355 1.22187,0.274846 0.47351,1.0232 l -0.99765,0.997652 c -0.65968,0.659674 0.86059,0.636115 1.52027,-0.02356 l 0.49475,-0.494756 m -18.85409,0.977897 -0.55239,-0.55239 c -0.73652,-0.73652 -0.70657,-2.203272 0.03,-1.466753 l 1.49277,1.492773 c 0.74836,0.748355 2.2456,0.74889 1.49725,5.35e-4 l -2.93352,-2.933516 c -0.74835,-0.748355 -0.69052,-2.187234 0.0578,-1.43888 l 4.3463,4.346293 c 0.74835,0.748355 2.12271,0.626005 1.37436,-0.12235 L 176.61139,72.1777 c -0.74836,-0.748355 -0.68495,-2.181659 0.0634,-1.433305 l 5.56231,5.562308 c 0.74835,0.748355 0.62068,-0.876029 -0.12768,-1.624384 l -5.38228,-5.382285 c -0.74836,-0.748355 -0.71506,-2.211773 0.0333,-1.463419 l 5.20993,5.209926 c 0.74835,0.748355 0.65421,-0.842494 -0.0941,-1.590849 l -5.11055,-5.11055 c -0.74836,-0.748355 -0.75608,-2.252782 -0.008,-1.504428 l 5.16412,5.164123 c 0.74835,0.748355 1.90282,0.406114 1.15447,-0.342241 l -6.33516,-6.33516 c -0.74836,-0.748355 -0.77581,-2.272521 -0.0275,-1.524166 l 8.528,8.527998 m 3.13126,6.124683 1.49119,1.491183 c 0.74835,0.748355 2.28086,0.784154 1.5325,0.0358 l -3.46254,-3.462549 c -0.74836,-0.748355 -1.83243,-3.329137 -1.08408,-2.580782 l 6.04283,6.042831 c 0.74836,0.748355 2.21577,0.719054 1.46741,-0.0293 L 176.67286,60.265498 c -0.74836,-0.748355 -0.80673,-2.303443 -0.0584,-1.555088 l 5.15638,5.156381 c 0.74836,0.748355 0.73375,-0.762964 -0.0146,-1.511318 l -5.22265,-5.22265 c -0.74835,-0.748355 -0.86392,-2.360629 -0.11556,-1.612274 l 5.35462,5.35462 c 0.74835,0.748355 0.82597,-0.670733 0.0776,-1.419088 l -4.24359,-4.243589 c -0.74836,-0.748355 0.68805,-0.808659 1.4364,-0.0603 l 3.64924,3.649237 c 0.74836,0.748355 2.17947,0.682765 1.43112,-0.06559 l -3.62733,-3.627328 c -0.74835,-0.748355 0.71229,-0.78442 1.46065,-0.03607 l 4.3873,4.387302 m 9.72608,18.706341 -11.57555,-11.575552 c -0.74835,-0.748355 0.79621,-0.7005 1.54457,0.04785 l 8.86043,8.860438 m -1.38888,-2.885591 -6.13608,-6.136077 c -0.74835,-0.748355 0.32326,-1.173452 1.07161,-0.425098 l 3.0914,3.091399 c 0.74836,0.748355 1.12343,-0.373283 0.37508,-1.121637 l -2.69736,-2.697353 c -0.74835,-0.748355 -0.32244,-1.819152 0.42591,-1.070797 l 3.09992,3.099915 c 0.74835,0.748355 1.49941,0.0027 0.75106,-0.745651 l -4.39564,-4.395642 m -6.23187,-7.728577 11.27613,11.276128 c 0.74835,0.748355 1.24121,-0.255492 0.49286,-1.003846 l -9.73755,-9.737545 c -0.74835,-0.748355 0.73616,-0.760557 1.48451,-0.0122 l 8.56897,8.568967 c 0.74835,0.748355 0.9062,-0.590505 0.15785,-1.338859 l -7.21937,-7.219366 c -0.74835,-0.748355 0.91451,-0.582202 1.66286,0.166153 l 5.57491,5.574904 c 0.74835,0.748355 0.50851,-0.988194 -0.23984,-1.736549 L 191.017,55.152425"
           id="path18107" />
      </g>
    </g>
  </g>
</svg>
