<?xml version="1.0" encoding="UTF-8" standalone="no"?>
<!-- Created with Inkscape (http://www.inkscape.org/) -->

<svg
   width="300mm"
   height="200mm"
   viewBox="0 0 300 200"
   version="1.1"
   id="svg5"
   inkscape:version="1.1 (c68e22c387, 2021-05-23)"
   sodipodi:docname="knife template.svg"
   xmlns:inkscape="http://www.inkscape.org/namespaces/inkscape"
   xmlns:sodipodi="http://sodipodi.sourceforge.net/DTD/sodipodi-0.dtd"
   xmlns="http://www.w3.org/2000/svg"
   xmlns:svg="http://www.w3.org/2000/svg">
  <sodipodi:namedview
     id="namedview7"
     pagecolor="#ffffff"
     bordercolor="#666666"
     borderopacity="1.0"
     inkscape:pageshadow="2"
     inkscape:pageopacity="0.0"
     inkscape:pagecheckerboard="0"
     inkscape:document-units="mm"
     showgrid="false"
     inkscape:zoom="0.82106903"
     inkscape:cx="534.05984"
     inkscape:cy="468.90089"
     inkscape:window-width="1920"
     inkscape:window-height="1122"
     inkscape:window-x="-8"
     inkscape:window-y="-8"
     inkscape:window-maximized="1"
     inkscape:current-layer="layer1" />
  <defs
     id="defs2" />
  <g
     inkscape:label="Layer 1"
     inkscape:groupmode="layer"
     id="layer1">
    <path
       id="rect846"
       style="fill:none;stroke:#000000;stroke-width:0.652321;stroke-linecap:round;stroke-linejoin:round"
       d="m 111.25251,51.887017 -95.614117,0.966727 c -8.5453719,0.0864 -15.42573667,7.357455 -15.42573667,16.496423 0,9.138968 6.88036477,16.582824 15.42573667,16.496424 l 95.614117,-0.966727 c 5.11814,-0.05175 14.14432,-6.999351 13.93327,-0.336019 l 9.8096,44.761705 c 1.94998,8.89787 -0.15267,12.19886 4.12334,17.30222 h 136.3425 c 8.54581,0 15.42574,-7.35747 15.42574,-16.49643 V 65.722931 c 14.71703,-43.999241 -6.03627,-10.980934 -10.60399,-5.504353 0,0 19.38939,-42.449529 -4.82175,-10.992071 -52.31152,-0.344033 -123.20932,2.676034 -164.20871,2.66051 z"
       sodipodi:nodetypes="csssscscsscccc" />
    <text
       xml:space="preserve"
       style="font-style:normal;font-weight:normal;font-size:10.5833px;line-height:1.25;font-family:sans-serif;fill:#000000;fill-opacity:1;stroke:none;stroke-width:0.264583"
       x="123.09663"
       y="63.159527"
       id="text4628"><tspan
         sodipodi:role="line"
         id="tspan4626"
         style="stroke-width:0.264583"
         x="123.09663"
         y="63.159527" /></text>
  </g>
</svg>
